%TF.GenerationSoftware,Altium Limited,Altium Designer,24.1.2 (44)*%
G04 Layer_Physical_Order=2*
G04 Layer_Color=16711680*
%FSLAX45Y45*%
%MOMM*%
%TF.SameCoordinates,791679A7-7A64-4111-B289-18E462613817*%
%TF.FilePolarity,Positive*%
%TF.FileFunction,Copper,L2,Bot,Signal*%
%TF.Part,Single*%
G01*
G75*
%TA.AperFunction,Conductor*%
%ADD10C,0.75000*%
%ADD11C,0.30000*%
%ADD12C,0.50000*%
%TA.AperFunction,SMDPad,CuDef*%
%ADD13R,0.95000X0.80000*%
%ADD17R,2.00000X2.00000*%
%ADD18R,0.80000X0.95000*%
%TA.AperFunction,ComponentPad*%
%ADD27C,1.50000*%
%ADD28R,1.80000X1.80000*%
%ADD29C,1.80000*%
%ADD30R,2.00000X2.00000*%
%ADD31C,2.00000*%
%ADD32R,2.00000X2.00000*%
%ADD33R,1.80000X1.80000*%
%TA.AperFunction,ViaPad*%
%ADD34C,1.52400*%
%ADD35C,5.00000*%
%ADD36C,0.60000*%
%TA.AperFunction,SMDPad,CuDef*%
%ADD37R,2.70000X1.00000*%
%ADD38R,1.00000X1.90000*%
%ADD39R,0.60000X1.00000*%
G36*
X5729169Y3396157D02*
X5747368Y3388619D01*
X5763746Y3377675D01*
X5777675Y3363746D01*
X5788619Y3347368D01*
X5796157Y3329169D01*
X5800000Y3309849D01*
Y2900000D01*
X5800481Y2890198D01*
X5804306Y2870971D01*
X5811808Y2852860D01*
X5822699Y2836560D01*
X5836561Y2822699D01*
X5852860Y2811808D01*
X5870971Y2804306D01*
X5890198Y2800481D01*
X5900000Y2800000D01*
X6309849D01*
X6329169Y2796157D01*
X6347368Y2788619D01*
X6363746Y2777675D01*
X6377675Y2763746D01*
X6388619Y2747368D01*
X6396157Y2729169D01*
X6400000Y2709849D01*
Y2700000D01*
Y800000D01*
Y790151D01*
X6396157Y770831D01*
X6388619Y752632D01*
X6377675Y736254D01*
X6363746Y722325D01*
X6347368Y711381D01*
X6329169Y703843D01*
X6309849Y700000D01*
X5900000D01*
X5890198Y699519D01*
X5870971Y695694D01*
X5852860Y688192D01*
X5836561Y677301D01*
X5822699Y663439D01*
X5811808Y647140D01*
X5804306Y629028D01*
X5800481Y609802D01*
X5800000Y600000D01*
Y190151D01*
X5796157Y170831D01*
X5788619Y152632D01*
X5777675Y136254D01*
X5763746Y122325D01*
X5747368Y111381D01*
X5729169Y103843D01*
X5709849Y100000D01*
X5437902D01*
X5428157Y112700D01*
X5433700Y133385D01*
Y166615D01*
X5425099Y198711D01*
X5408485Y227488D01*
X5384988Y250985D01*
X5373061Y257871D01*
Y568500D01*
X5373486D01*
X5369547Y618557D01*
X5357825Y667381D01*
X5338610Y713771D01*
X5312374Y756583D01*
X5279764Y794764D01*
X5241583Y827375D01*
X5198771Y853610D01*
X5152381Y872825D01*
X5103557Y884547D01*
X5053500Y888486D01*
Y888061D01*
X4958074D01*
X4956402Y900761D01*
X4964579Y902952D01*
X4972457Y907500D01*
X5157500D01*
Y1187500D01*
Y1477500D01*
X4972456D01*
X4964579Y1482048D01*
X4944232Y1487500D01*
X4926476D01*
X4921482Y1489849D01*
X4915253Y1498527D01*
X4912468Y1526806D01*
X4902461Y1559794D01*
X4886211Y1590195D01*
X4864342Y1616842D01*
X4837695Y1638711D01*
X4807294Y1654961D01*
X4774306Y1664968D01*
X4740000Y1668347D01*
Y1668061D01*
X4417500D01*
Y1668686D01*
X4381605Y1663961D01*
X4348157Y1650106D01*
X4319434Y1628066D01*
X4297394Y1599343D01*
X4283539Y1565895D01*
X4278814Y1530000D01*
X4279439D01*
Y1488945D01*
X4270452Y1473379D01*
X4265000Y1453032D01*
Y1431968D01*
X4270452Y1411621D01*
X4280984Y1393379D01*
X4295879Y1378484D01*
X4314121Y1367952D01*
X4334468Y1362500D01*
X4355532D01*
X4374800Y1367663D01*
X4378251Y1367301D01*
X4387500Y1361961D01*
Y1345000D01*
X4405032D01*
X4411551Y1335000D01*
X4415331Y1306285D01*
X4426415Y1279526D01*
X4444047Y1256548D01*
X4467025Y1238916D01*
X4493784Y1227832D01*
X4521499Y1224183D01*
X4536621Y1215452D01*
X4556968Y1210001D01*
X4578032D01*
X4598379Y1215452D01*
X4616621Y1225985D01*
X4631516Y1240879D01*
X4642048Y1259122D01*
X4647500Y1279468D01*
Y1300533D01*
X4642048Y1320879D01*
X4631516Y1339122D01*
X4616621Y1354016D01*
X4611626Y1356900D01*
X4615029Y1369600D01*
X4637512D01*
X4637921Y1369431D01*
X4657500Y1366853D01*
X4757500D01*
X4771739Y1368728D01*
X4784439Y1360132D01*
Y899000D01*
X4783779D01*
X4788642Y862061D01*
X4795394Y845761D01*
X4786908Y833061D01*
X4573787D01*
Y833182D01*
X4570978Y833741D01*
X4567500Y845000D01*
X4567500Y845000D01*
Y1012512D01*
X4580200Y1014753D01*
X4592100Y1005622D01*
Y955200D01*
X4644800D01*
Y1015400D01*
X4615028D01*
X4611625Y1028100D01*
X4616621Y1030984D01*
X4631516Y1045879D01*
X4642048Y1064122D01*
X4647500Y1084468D01*
Y1105532D01*
X4642048Y1125879D01*
X4631516Y1144121D01*
X4616621Y1159016D01*
X4598379Y1169548D01*
X4578032Y1175000D01*
X4556968D01*
X4536621Y1169548D01*
X4521499Y1160818D01*
X4493784Y1157169D01*
X4467025Y1146085D01*
X4444047Y1128453D01*
X4426415Y1105475D01*
X4415331Y1078716D01*
X4411551Y1050000D01*
X4405033Y1040000D01*
X4387500D01*
Y1028438D01*
X4374800Y1018788D01*
X4352491Y1020985D01*
X4323635Y1029738D01*
X4297041Y1043953D01*
X4274130Y1062756D01*
X4273815Y1063166D01*
X4109924Y1227057D01*
X4101516Y1241621D01*
X4086621Y1256516D01*
X4068379Y1267048D01*
X4048032Y1272500D01*
X4026968D01*
X4006621Y1267048D01*
X3988379Y1256516D01*
X3973484Y1241621D01*
X3962952Y1223379D01*
X3957500Y1203032D01*
Y1181968D01*
X3962952Y1161621D01*
X3973484Y1143379D01*
X3988379Y1128484D01*
X4002943Y1120075D01*
X4166834Y956185D01*
X4166626Y955977D01*
X4203054Y924865D01*
X4243901Y899834D01*
X4288160Y881501D01*
X4334742Y870318D01*
X4382500Y866559D01*
X4387500Y855930D01*
Y845000D01*
X4413570D01*
X4414834Y832169D01*
X4424056Y801766D01*
X4439033Y773747D01*
X4459188Y749188D01*
X4483747Y729033D01*
X4511766Y714056D01*
X4542169Y704834D01*
X4573787Y701720D01*
Y701939D01*
X4799500D01*
X4800365Y702053D01*
X4836301Y698514D01*
X4871689Y687779D01*
X4904302Y670347D01*
X4932888Y646888D01*
X4956347Y618302D01*
X4973779Y585689D01*
X4984514Y550302D01*
X4988053Y514365D01*
X4987939Y513500D01*
Y257871D01*
X4976011Y250985D01*
X4952515Y227488D01*
X4935900Y198711D01*
X4933074Y188163D01*
X4919926D01*
X4917099Y198711D01*
X4900485Y227488D01*
X4876988Y250985D01*
X4848211Y267599D01*
X4836532Y270729D01*
X4836081Y271818D01*
X4814081Y307719D01*
X4786736Y339736D01*
X4754719Y367081D01*
X4718818Y389081D01*
X4679917Y405194D01*
X4638975Y415024D01*
X4597000Y418327D01*
Y418061D01*
X3572202D01*
X3571292Y417941D01*
X3543504Y421599D01*
X3516762Y432676D01*
X3493797Y450297D01*
X3476176Y473261D01*
X3465099Y500004D01*
X3463987Y508451D01*
X3472361Y518000D01*
X3493500D01*
Y698000D01*
X3298500D01*
Y688000D01*
X3284593D01*
X3282798Y687519D01*
X3277386Y691136D01*
X3271947Y699274D01*
X3270038Y708875D01*
X3269897D01*
Y841625D01*
X3270101D01*
X3266705Y876103D01*
X3256648Y909255D01*
X3240317Y939809D01*
X3218339Y966589D01*
X3191559Y988567D01*
X3161005Y1004898D01*
X3127853Y1014955D01*
X3093375Y1018351D01*
Y1018147D01*
X3019277D01*
X3003032Y1022500D01*
X2981968D01*
X2965723Y1018147D01*
X2764000D01*
X2763127Y1018032D01*
X2730629Y1021233D01*
X2698540Y1030967D01*
X2668967Y1046774D01*
X2643047Y1068047D01*
X2621774Y1093968D01*
X2605967Y1123541D01*
X2596233Y1155629D01*
X2593032Y1188127D01*
X2593147Y1189000D01*
Y1675312D01*
X2605847Y1678715D01*
X2607484Y1675879D01*
X2622379Y1660984D01*
X2640621Y1650452D01*
X2660968Y1645000D01*
X2682032D01*
X2702379Y1650452D01*
X2717946Y1659439D01*
X2771500D01*
Y1659014D01*
X2821557Y1662953D01*
X2870381Y1674675D01*
X2916771Y1693890D01*
X2959583Y1720126D01*
X2997764Y1752736D01*
X3030374Y1790917D01*
X3056610Y1833729D01*
X3075825Y1880119D01*
X3087547Y1928943D01*
X3091486Y1979000D01*
X3091061D01*
Y3026194D01*
X3111462Y3037972D01*
X3137528Y3064038D01*
X3155959Y3095962D01*
X3165500Y3131569D01*
Y3168431D01*
X3155959Y3204038D01*
X3137528Y3235962D01*
X3111462Y3262028D01*
X3079538Y3280459D01*
X3043931Y3290000D01*
X3007069D01*
X2971462Y3280459D01*
X2939538Y3262028D01*
X2913472Y3235962D01*
X2904850Y3221028D01*
X2892150D01*
X2883528Y3235962D01*
X2857462Y3262028D01*
X2825538Y3280459D01*
X2789931Y3290000D01*
X2753069D01*
X2717462Y3280459D01*
X2685538Y3262028D01*
X2659472Y3235962D01*
X2641041Y3204038D01*
X2631500Y3168431D01*
Y3131569D01*
X2641041Y3095962D01*
X2659472Y3064038D01*
X2671205Y3052305D01*
X2673999Y3040000D01*
X2674000D01*
X2674000Y3039999D01*
Y2872700D01*
X2674000Y2860000D01*
X2667483Y2850000D01*
X2660968D01*
X2640621Y2844548D01*
X2622379Y2834016D01*
X2607484Y2819121D01*
X2596952Y2800879D01*
X2591500Y2780532D01*
Y2759468D01*
X2596952Y2739121D01*
X2607484Y2720879D01*
X2622379Y2705984D01*
X2640621Y2695452D01*
X2660968Y2690000D01*
X2674000D01*
Y2680000D01*
X2869000D01*
Y2847300D01*
X2869000Y2860000D01*
X2869000Y2872700D01*
Y3040000D01*
X2869000D01*
X2866214Y3046725D01*
X2883528Y3064038D01*
X2892150Y3078973D01*
X2904850D01*
X2913472Y3064038D01*
X2939538Y3037972D01*
X2959939Y3026194D01*
Y1979000D01*
X2960053Y1978135D01*
X2956514Y1942199D01*
X2945779Y1906811D01*
X2928347Y1874198D01*
X2904888Y1845613D01*
X2876302Y1822153D01*
X2843689Y1804721D01*
X2808301Y1793986D01*
X2772365Y1790447D01*
X2771500Y1790561D01*
X2717946D01*
X2702379Y1799548D01*
X2682032Y1805000D01*
X2660968D01*
X2640621Y1799548D01*
X2622379Y1789016D01*
X2607484Y1774121D01*
X2605847Y1771286D01*
X2593147Y1774688D01*
Y2296000D01*
X2593540D01*
X2589385Y2348803D01*
X2577020Y2400306D01*
X2556751Y2449240D01*
X2529076Y2494401D01*
X2494677Y2534677D01*
X2454401Y2569076D01*
X2409240Y2596751D01*
X2360306Y2617020D01*
X2308803Y2629385D01*
X2256000Y2633541D01*
Y2633147D01*
X1750777D01*
X1734532Y2637500D01*
X1713468D01*
X1693121Y2632048D01*
X1674879Y2621516D01*
X1659984Y2606621D01*
X1649452Y2588379D01*
X1644000Y2568032D01*
Y2546968D01*
X1649452Y2526621D01*
X1658353Y2511205D01*
Y2397500D01*
X1644000D01*
Y2202500D01*
Y2067500D01*
Y1932500D01*
Y1797500D01*
X1656924D01*
X1663980Y1786940D01*
X1660930Y1779579D01*
X1658353Y1760000D01*
Y1625000D01*
Y1579768D01*
X1652901Y1571609D01*
X1649020Y1552100D01*
Y1400002D01*
X1649020Y1390152D01*
X1649999Y1385227D01*
Y1380205D01*
X1653842Y1360886D01*
X1655763Y1356246D01*
X1656743Y1351322D01*
X1664281Y1333123D01*
X1667070Y1328949D01*
X1668992Y1324309D01*
X1679935Y1307930D01*
X1683486Y1304380D01*
X1686275Y1300205D01*
X1700204Y1286276D01*
X1704380Y1283486D01*
X1707930Y1279935D01*
X1724309Y1268992D01*
X1728949Y1267070D01*
X1733124Y1264281D01*
X1751322Y1256743D01*
X1756247Y1255764D01*
X1760885Y1253842D01*
X1780205Y1250000D01*
X1785227D01*
X1790152Y1249020D01*
X1800002Y1249021D01*
X2199990Y1249021D01*
X2209839Y1249020D01*
X2214765Y1249999D01*
X2219787Y1249999D01*
X2239108Y1253840D01*
X2243748Y1255762D01*
X2248673Y1256741D01*
X2266873Y1264278D01*
X2271049Y1267068D01*
X2275688Y1268989D01*
X2292068Y1279933D01*
X2295619Y1283483D01*
X2299794Y1286273D01*
X2313724Y1300202D01*
X2316514Y1304378D01*
X2320064Y1307929D01*
X2331009Y1324308D01*
X2332930Y1328947D01*
X2335720Y1333123D01*
X2343258Y1351323D01*
X2344237Y1356248D01*
X2346159Y1360887D01*
X2350001Y1380208D01*
X2350001Y1385230D01*
X2350980Y1390156D01*
X2350979Y1399998D01*
X2350980Y1400001D01*
Y1700000D01*
X2350979Y1709851D01*
X2350000Y1714775D01*
Y1719795D01*
X2346157Y1739115D01*
X2344235Y1743753D01*
X2343256Y1748678D01*
X2335717Y1766877D01*
X2332928Y1771051D01*
X2331007Y1775690D01*
X2320063Y1792069D01*
X2316513Y1795619D01*
X2313723Y1799794D01*
X2299794Y1813723D01*
X2295619Y1816512D01*
X2292069Y1820063D01*
X2275690Y1831006D01*
X2271052Y1832927D01*
X2266877Y1835717D01*
X2248678Y1843256D01*
X2243753Y1844235D01*
X2239115Y1846157D01*
X2219795Y1850000D01*
X2214774D01*
X2209849Y1850979D01*
X2201254D01*
X2196455Y1851215D01*
X2185842Y1853326D01*
X2177008Y1856985D01*
X2169058Y1862297D01*
X2162297Y1869058D01*
X2156986Y1877007D01*
X2153326Y1885842D01*
X2151215Y1896455D01*
X2150980Y1901248D01*
X2150979Y2400000D01*
Y2409849D01*
X2150000Y2414774D01*
Y2419795D01*
X2146157Y2439115D01*
X2144235Y2443753D01*
X2143256Y2448678D01*
X2135718Y2466877D01*
X2134197Y2469153D01*
X2135809Y2474708D01*
X2141437Y2481853D01*
X2256000D01*
X2257189Y2482010D01*
X2292311Y2478550D01*
X2327228Y2467958D01*
X2359406Y2450759D01*
X2387611Y2427611D01*
X2410758Y2399406D01*
X2427958Y2367228D01*
X2438550Y2332312D01*
X2442009Y2297189D01*
X2441853Y2296000D01*
Y1189000D01*
X2441506D01*
X2445476Y1138551D01*
X2457290Y1089344D01*
X2476656Y1042591D01*
X2503097Y999443D01*
X2535962Y960962D01*
X2574443Y928097D01*
X2617591Y901656D01*
X2664344Y882290D01*
X2713551Y870477D01*
X2764000Y866506D01*
Y866853D01*
X2965723D01*
X2981968Y862500D01*
X3003032D01*
X3019277Y866853D01*
X3093375D01*
Y866712D01*
X3102976Y864803D01*
X3111114Y859365D01*
X3116553Y851226D01*
X3118462Y841625D01*
X3118603D01*
Y708875D01*
X3118399D01*
X3121795Y674397D01*
X3131851Y641245D01*
X3148183Y610691D01*
X3170161Y583911D01*
X3196941Y561933D01*
X3227495Y545601D01*
X3260592Y535562D01*
X3264246Y533452D01*
X3284593Y528000D01*
X3298500D01*
Y518000D01*
X3330887D01*
X3334490Y481418D01*
X3348282Y435951D01*
X3370680Y394049D01*
X3384637Y377041D01*
X3379207Y365561D01*
X2796283D01*
X2796158Y365544D01*
X2766385Y368477D01*
X2737636Y377197D01*
X2711141Y391359D01*
X2687918Y410418D01*
X2668859Y433641D01*
X2654697Y460136D01*
X2645976Y488885D01*
X2643044Y518658D01*
X2643060Y518783D01*
Y524554D01*
X2652048Y540121D01*
X2657500Y560468D01*
Y581532D01*
X2652048Y601879D01*
X2641516Y620121D01*
X2626621Y635016D01*
X2608379Y645548D01*
X2588032Y651000D01*
X2566968D01*
X2546621Y645548D01*
X2528379Y635016D01*
X2513484Y620121D01*
X2502952Y601879D01*
X2497500Y581532D01*
Y560468D01*
X2502952Y540121D01*
X2508650Y530252D01*
X2511622Y518783D01*
X2511622D01*
X2515127Y474252D01*
X2525555Y430818D01*
X2542648Y389550D01*
X2565988Y351464D01*
X2594997Y317497D01*
X2628963Y288488D01*
X2667050Y265149D01*
X2708318Y248055D01*
X2751752Y237627D01*
X2796283Y234122D01*
Y234439D01*
X4180299D01*
X4187195Y221739D01*
X4173900Y198711D01*
X4165300Y166615D01*
Y133385D01*
X4170843Y112700D01*
X4161098Y100000D01*
X1590151D01*
X1570831Y103843D01*
X1552632Y111381D01*
X1536254Y122325D01*
X1522325Y136254D01*
X1511381Y152632D01*
X1503843Y170831D01*
X1500000Y190151D01*
Y200000D01*
Y1300000D01*
X1499518Y1309802D01*
X1495694Y1329028D01*
X1488192Y1347140D01*
X1477301Y1363439D01*
X1463439Y1377301D01*
X1447140Y1388192D01*
X1429028Y1395694D01*
X1409802Y1399518D01*
X1400000Y1400000D01*
X1290151D01*
X1270831Y1403843D01*
X1252632Y1411381D01*
X1236254Y1422325D01*
X1222325Y1436254D01*
X1211381Y1452632D01*
X1203843Y1470831D01*
X1200000Y1490151D01*
Y1900000D01*
X1199037Y1919603D01*
X1191388Y1958057D01*
X1176384Y1994279D01*
X1154602Y2026879D01*
X1126878Y2054602D01*
X1094279Y2076384D01*
X1058057Y2091388D01*
X1019603Y2099037D01*
X1000000Y2100000D01*
X190151D01*
X170831Y2103843D01*
X152632Y2111381D01*
X136254Y2122325D01*
X122325Y2136254D01*
X111381Y2152632D01*
X103843Y2170831D01*
X100000Y2190151D01*
Y2200000D01*
Y2700000D01*
Y2709849D01*
X103843Y2729169D01*
X111381Y2747368D01*
X122325Y2763746D01*
X136254Y2777675D01*
X152632Y2788619D01*
X170831Y2796157D01*
X190151Y2800000D01*
X600000D01*
X609802Y2800481D01*
X629028Y2804306D01*
X647140Y2811808D01*
X663439Y2822699D01*
X677301Y2836560D01*
X688192Y2852860D01*
X695694Y2870971D01*
X699519Y2890198D01*
X700000Y2900000D01*
Y3309849D01*
X703843Y3329169D01*
X711381Y3347368D01*
X722325Y3363746D01*
X736254Y3377675D01*
X752632Y3388619D01*
X770831Y3396157D01*
X790151Y3400000D01*
X5709849D01*
X5729169Y3396157D01*
D02*
G37*
G36*
X2063746Y2477675D02*
X2077675Y2463746D01*
X2088619Y2447367D01*
X2096157Y2429169D01*
X2100000Y2409849D01*
Y2400000D01*
X2100000Y1900000D01*
X2100481Y1890198D01*
X2104306Y1870971D01*
X2111808Y1852860D01*
X2122699Y1836560D01*
X2136561Y1822699D01*
X2152860Y1811808D01*
X2170971Y1804306D01*
X2190198Y1800481D01*
X2200000Y1800000D01*
Y1800000D01*
X2209849D01*
X2229169Y1796157D01*
X2247368Y1788618D01*
X2263746Y1777675D01*
X2277675Y1763746D01*
X2288618Y1747368D01*
X2296157Y1729169D01*
X2300000Y1709849D01*
X2300000Y1700000D01*
Y1400001D01*
X2299999Y1400000D01*
X2300000Y1390151D01*
X2296158Y1370830D01*
X2288620Y1352630D01*
X2277676Y1336251D01*
X2263747Y1322322D01*
X2247367Y1311378D01*
X2229167Y1303841D01*
X2209846Y1299999D01*
X2199997Y1300001D01*
X1799999Y1300000D01*
X1790150Y1300000D01*
X1770830Y1303842D01*
X1752631Y1311380D01*
X1736252Y1322324D01*
X1722323Y1336253D01*
X1711380Y1352631D01*
X1703842Y1370830D01*
X1699999Y1390150D01*
X1700000Y1399999D01*
Y1552100D01*
X1721300D01*
Y1625000D01*
X1734000D01*
Y1637700D01*
X1799400D01*
Y1687100D01*
Y1747300D01*
X1734000D01*
Y1772700D01*
X1799400D01*
Y1788520D01*
X1808380Y1797500D01*
X1823999Y1797500D01*
X1824000Y1784801D01*
Y1662500D01*
Y1527500D01*
X1825053D01*
X1827265Y1526170D01*
X1835258Y1514800D01*
X1833310Y1500000D01*
X1836059Y1479116D01*
X1844120Y1459655D01*
X1856943Y1442944D01*
X1873655Y1430120D01*
X1893116Y1422059D01*
X1914000Y1419310D01*
X1934884Y1422059D01*
X1954345Y1430120D01*
X1971057Y1442944D01*
X1983880Y1459655D01*
X1991941Y1479116D01*
X1994690Y1500000D01*
X1992742Y1514800D01*
X2000735Y1526170D01*
X2002947Y1527500D01*
X2004000D01*
Y1662500D01*
Y1797500D01*
Y1992500D01*
X1979400D01*
Y2017300D01*
X1914000D01*
X1848600D01*
Y2001480D01*
X1839620Y1992500D01*
X1824000Y1992500D01*
X1824000Y2005200D01*
Y2067500D01*
Y2202500D01*
Y2397500D01*
X1809647D01*
Y2481853D01*
X2057493D01*
X2063746Y2477675D01*
D02*
G37*
G36*
X5090301Y753514D02*
X5125689Y742779D01*
X5158302Y725347D01*
X5186888Y701888D01*
X5210347Y673302D01*
X5227779Y640689D01*
X5238514Y605302D01*
X5242053Y569365D01*
X5241939Y568500D01*
Y257871D01*
X5230011Y250985D01*
X5206515Y227488D01*
X5189900Y198711D01*
X5187074Y188163D01*
X5173926D01*
X5171099Y198711D01*
X5154485Y227488D01*
X5130988Y250985D01*
X5119061Y257871D01*
Y513500D01*
X5119486D01*
X5115547Y563557D01*
X5103825Y612381D01*
X5084610Y658771D01*
X5058374Y701583D01*
X5025764Y739765D01*
X5019606Y745024D01*
X5024002Y756939D01*
X5053500D01*
X5054365Y757053D01*
X5090301Y753514D01*
D02*
G37*
%LPC*%
G36*
X2281931Y3290000D02*
X2245069D01*
X2209462Y3280459D01*
X2177538Y3262028D01*
X2162200Y3246689D01*
X2149500Y3251950D01*
Y3290000D01*
X1869500D01*
Y3010000D01*
X2149500D01*
Y3040483D01*
X2161646Y3045514D01*
X2165999Y3040000D01*
X2166000D01*
X2166000Y3039999D01*
Y2872700D01*
X2166000Y2860000D01*
X2166000Y2847300D01*
Y2680000D01*
X2361000D01*
Y2690000D01*
X2374032D01*
X2394379Y2695452D01*
X2412621Y2705984D01*
X2427516Y2720879D01*
X2438048Y2739121D01*
X2443500Y2759468D01*
Y2780532D01*
X2438048Y2800879D01*
X2427516Y2819121D01*
X2412621Y2834016D01*
X2394379Y2844548D01*
X2374032Y2850000D01*
X2367517D01*
X2361000Y2860000D01*
X2361000Y2872700D01*
Y3040000D01*
X2361000D01*
X2358214Y3046725D01*
X2375528Y3064038D01*
X2393959Y3095962D01*
X2403500Y3131569D01*
Y3168431D01*
X2393959Y3204038D01*
X2375528Y3235962D01*
X2349462Y3262028D01*
X2317538Y3280459D01*
X2281931Y3290000D01*
D02*
G37*
G36*
X3551931D02*
X3515069D01*
X3479462Y3280459D01*
X3447538Y3262028D01*
X3421472Y3235962D01*
X3403041Y3204038D01*
X3393500Y3168431D01*
Y3131569D01*
X3403041Y3095962D01*
X3421472Y3064038D01*
X3433205Y3052305D01*
X3435999Y3040000D01*
X3436000D01*
X3436000Y3040000D01*
Y2872700D01*
X3436000Y2860000D01*
X3436000Y2847300D01*
Y2680000D01*
X3631000D01*
Y2690000D01*
X3644032D01*
X3664379Y2695452D01*
X3682621Y2705984D01*
X3697516Y2720879D01*
X3708048Y2739121D01*
X3713500Y2759468D01*
Y2780532D01*
X3708048Y2800879D01*
X3697516Y2819121D01*
X3682621Y2834016D01*
X3664379Y2844548D01*
X3644032Y2850000D01*
X3637517D01*
X3631000Y2860000D01*
X3631000Y2872700D01*
Y3040000D01*
X3631000D01*
X3628214Y3046725D01*
X3645528Y3064038D01*
X3663959Y3095962D01*
X3673500Y3131569D01*
Y3168431D01*
X3663959Y3204038D01*
X3645528Y3235962D01*
X3619462Y3262028D01*
X3587538Y3280459D01*
X3551931Y3290000D01*
D02*
G37*
G36*
X4181500D02*
X3901500D01*
Y3010000D01*
X3944000D01*
Y2872700D01*
X3944000Y2860000D01*
X3937483Y2850000D01*
X3930968D01*
X3910621Y2844548D01*
X3892379Y2834016D01*
X3877484Y2819121D01*
X3866952Y2800879D01*
X3861500Y2780532D01*
Y2759468D01*
X3866952Y2739121D01*
X3877484Y2720879D01*
X3892379Y2705984D01*
X3910621Y2695452D01*
X3930968Y2690000D01*
X3944000D01*
Y2680000D01*
X4139000D01*
Y2847300D01*
X4139000Y2860000D01*
X4139000Y2872700D01*
Y3010000D01*
X4181500D01*
Y3290000D01*
D02*
G37*
G36*
X1100000Y2975000D02*
X800000D01*
Y2675000D01*
X1100000D01*
Y2975000D01*
D02*
G37*
G36*
X5073957Y3275000D02*
X5041043D01*
X5009252Y3266481D01*
X4980748Y3250025D01*
X4957475Y3226752D01*
X4941019Y3198248D01*
X4932500Y3166457D01*
Y3133543D01*
X4941019Y3101752D01*
X4957475Y3073248D01*
X4969245Y3061479D01*
Y2882500D01*
X4969119D01*
X4972638Y2837778D01*
X4983111Y2794158D01*
X5000278Y2752713D01*
X5023717Y2714463D01*
X5052851Y2680351D01*
X5086963Y2651217D01*
X5125213Y2627778D01*
X5166658Y2610611D01*
X5210278Y2600138D01*
X5255000Y2596619D01*
Y2596618D01*
X5267500Y2596136D01*
Y2585000D01*
X5637500D01*
Y2585000D01*
X5650200Y2591407D01*
X5673326Y2584391D01*
X5702031Y2569048D01*
X5726230Y2549188D01*
X5726989Y2548199D01*
X5750000Y2525188D01*
Y2350000D01*
X6050000D01*
Y2650000D01*
X5874811D01*
X5851801Y2673011D01*
X5852013Y2673224D01*
X5811139Y2708134D01*
X5765307Y2736219D01*
X5715645Y2756790D01*
X5663377Y2769338D01*
X5637500Y2771375D01*
Y2785000D01*
X5267500D01*
Y2773255D01*
X5255000D01*
X5253392Y2773043D01*
X5226616Y2776568D01*
X5200166Y2787525D01*
X5177453Y2804953D01*
X5160024Y2827666D01*
X5149068Y2854116D01*
X5145543Y2880892D01*
X5145755Y2882500D01*
Y3061479D01*
X5157525Y3073248D01*
X5173981Y3101752D01*
X5182500Y3133543D01*
Y3166457D01*
X5173981Y3198248D01*
X5157525Y3226752D01*
X5134252Y3250025D01*
X5105748Y3266481D01*
X5073957Y3275000D01*
D02*
G37*
G36*
X5637500Y2415000D02*
X5267500D01*
Y2215000D01*
Y2085000D01*
X5637500D01*
Y2085000D01*
X5650200Y2091407D01*
X5673326Y2084391D01*
X5702031Y2069048D01*
X5726230Y2049188D01*
X5726989Y2048199D01*
X5751728Y2023461D01*
X5750000Y2014774D01*
Y1985226D01*
X5755764Y1956247D01*
X5767072Y1928948D01*
X5783487Y1904381D01*
X5804380Y1883487D01*
X5828948Y1867072D01*
X5856246Y1855765D01*
X5885226Y1850000D01*
X5914773D01*
X5943753Y1855765D01*
X5971051Y1867072D01*
X5995619Y1883487D01*
X6016512Y1904381D01*
X6032928Y1928948D01*
X6044235Y1956247D01*
X6050000Y1985226D01*
Y2014774D01*
X6044235Y2043753D01*
X6032928Y2071052D01*
X6016512Y2095619D01*
X5995619Y2116513D01*
X5971051Y2132928D01*
X5943753Y2144235D01*
X5914773Y2150000D01*
X5885226D01*
X5876539Y2148272D01*
X5851800Y2173011D01*
X5852013Y2173223D01*
X5811139Y2208134D01*
X5765306Y2236219D01*
X5715645Y2256790D01*
X5663377Y2269338D01*
X5637500Y2271375D01*
Y2415000D01*
D02*
G37*
G36*
X3417032Y2132500D02*
X3395968D01*
X3375621Y2127048D01*
X3357379Y2116516D01*
X3342484Y2101621D01*
X3331952Y2083379D01*
X3326500Y2063032D01*
Y2041968D01*
X3331952Y2021621D01*
X3342484Y2003379D01*
X3357379Y1988484D01*
X3375621Y1977952D01*
X3395968Y1972500D01*
X3417032D01*
X3433277Y1976853D01*
X3550605D01*
X3551423Y1976961D01*
X3575960Y1973730D01*
X3599587Y1963944D01*
X3619876Y1948376D01*
X3635444Y1928087D01*
X3645230Y1904460D01*
X3648461Y1879924D01*
X3648353Y1879105D01*
Y1802392D01*
X3635653Y1795060D01*
X3627879Y1799548D01*
X3607532Y1805000D01*
X3586468D01*
X3566121Y1799548D01*
X3547879Y1789016D01*
X3532984Y1774121D01*
X3522452Y1755879D01*
X3517000Y1735532D01*
Y1714468D01*
X3522452Y1694121D01*
X3531439Y1678555D01*
Y1625000D01*
X3531391D01*
X3528773Y1611839D01*
X3521318Y1600682D01*
X3510161Y1593227D01*
X3497000Y1590609D01*
Y1590561D01*
X2861445D01*
X2845879Y1599548D01*
X2825532Y1605000D01*
X2804468D01*
X2784121Y1599548D01*
X2765879Y1589016D01*
X2750984Y1574121D01*
X2740452Y1555879D01*
X2735000Y1535532D01*
Y1514468D01*
X2740452Y1494121D01*
X2750984Y1475879D01*
X2765879Y1460984D01*
X2784121Y1450452D01*
X2804468Y1445000D01*
X2825532D01*
X2845879Y1450452D01*
X2861445Y1459439D01*
X3497000D01*
Y1459202D01*
X3529345Y1462387D01*
X3560448Y1471823D01*
X3589112Y1487144D01*
X3614237Y1507763D01*
X3630065Y1527049D01*
X3644806Y1525268D01*
X3647199Y1519971D01*
X3644000Y1508032D01*
Y1486968D01*
X3649452Y1466621D01*
X3659984Y1448379D01*
X3674879Y1433484D01*
X3693121Y1422952D01*
X3713468Y1417500D01*
X3734532D01*
X3754879Y1422952D01*
X3773121Y1433484D01*
X3788016Y1448379D01*
X3798548Y1466621D01*
X3804000Y1486968D01*
Y1508032D01*
X3799647Y1524277D01*
Y1879105D01*
X3800202D01*
X3795406Y1927799D01*
X3781202Y1974622D01*
X3758137Y2017774D01*
X3727097Y2055597D01*
X3689274Y2086637D01*
X3646122Y2109702D01*
X3599299Y2123906D01*
X3550605Y2128702D01*
Y2128147D01*
X3433277D01*
X3417032Y2132500D01*
D02*
G37*
G36*
X5452900Y1452900D02*
X5390200D01*
Y1345200D01*
X5452900D01*
Y1452900D01*
D02*
G37*
G36*
X5364800D02*
X5302100D01*
Y1345200D01*
X5364800D01*
Y1452900D01*
D02*
G37*
G36*
X5637500Y1915000D02*
X5267500D01*
Y1897749D01*
X5221855Y1886790D01*
X5172193Y1866220D01*
X5126361Y1838134D01*
X5085487Y1803224D01*
X5085700Y1803011D01*
X5057688Y1775000D01*
X5041043D01*
X5009252Y1766481D01*
X4980748Y1750025D01*
X4957475Y1726752D01*
X4941019Y1698248D01*
X4932500Y1666457D01*
Y1633543D01*
X4941019Y1601752D01*
X4957475Y1573248D01*
X4980748Y1549975D01*
X5009252Y1533519D01*
X5041043Y1525000D01*
X5073957D01*
X5105748Y1533519D01*
X5134252Y1549975D01*
X5157525Y1573248D01*
X5173981Y1601752D01*
X5182500Y1633543D01*
Y1650188D01*
X5210511Y1678200D01*
X5211270Y1679189D01*
X5235469Y1699049D01*
X5256706Y1710400D01*
X5267500Y1715000D01*
X5267500Y1715000D01*
X5637500D01*
Y1726745D01*
X5673750D01*
X5674414Y1726832D01*
X5688374Y1724056D01*
X5700772Y1715772D01*
X5709056Y1703374D01*
X5711832Y1689414D01*
X5711745Y1688750D01*
Y1562500D01*
X5650000D01*
Y1262500D01*
X5950000D01*
Y1562500D01*
X5888255D01*
Y1688750D01*
X5888534D01*
X5884407Y1730653D01*
X5872185Y1770945D01*
X5852337Y1808078D01*
X5825625Y1840625D01*
X5793078Y1867337D01*
X5755945Y1887185D01*
X5715653Y1899407D01*
X5673750Y1903534D01*
Y1903255D01*
X5637500D01*
Y1915000D01*
D02*
G37*
G36*
X5452900Y1319800D02*
X5390200D01*
Y1212100D01*
X5452900D01*
Y1319800D01*
D02*
G37*
G36*
X5364800D02*
X5302100D01*
Y1212100D01*
X5364800D01*
Y1319800D01*
D02*
G37*
G36*
X1979400Y1151900D02*
X1926700D01*
Y1091700D01*
X1979400D01*
Y1151900D01*
D02*
G37*
G36*
X1901300D02*
X1848600D01*
Y1091700D01*
X1901300D01*
Y1151900D01*
D02*
G37*
G36*
X5452900Y1172900D02*
X5390200D01*
Y1065200D01*
X5452900D01*
Y1172900D01*
D02*
G37*
G36*
X5364800D02*
X5302100D01*
Y1065200D01*
X5364800D01*
Y1172900D01*
D02*
G37*
G36*
X1914000Y1079000D02*
D01*
Y1066300D01*
X1848600D01*
Y1006100D01*
Y964700D01*
X1914000D01*
X1979400D01*
Y1006100D01*
Y1066300D01*
X1914000D01*
Y1079000D01*
D02*
G37*
G36*
X4722900Y1015400D02*
X4670200D01*
Y955200D01*
X4722900D01*
Y1015400D01*
D02*
G37*
G36*
X5452900Y1039800D02*
X5390200D01*
Y932100D01*
X5452900D01*
Y1039800D01*
D02*
G37*
G36*
X5364800D02*
X5302100D01*
Y932100D01*
X5364800D01*
Y1039800D01*
D02*
G37*
G36*
X4722900Y929800D02*
X4670200D01*
Y869600D01*
X4722900D01*
Y929800D01*
D02*
G37*
G36*
X4644800D02*
X4592100D01*
Y869600D01*
X4644800D01*
Y929800D01*
D02*
G37*
G36*
X3646400Y865900D02*
X3593700D01*
Y805699D01*
X3646400D01*
Y865900D01*
D02*
G37*
G36*
X3568300D02*
X3515600D01*
Y805699D01*
X3568300D01*
Y865900D01*
D02*
G37*
G36*
X3468900Y853400D02*
X3408700D01*
Y800700D01*
X3468900D01*
Y853400D01*
D02*
G37*
G36*
X3383300D02*
X3323100D01*
Y800700D01*
X3383300D01*
Y853400D01*
D02*
G37*
G36*
X5950000Y1122500D02*
X5650000D01*
Y822500D01*
X5711745D01*
X5714752Y799658D01*
X5723569Y778373D01*
X5737594Y760094D01*
X5755872Y746069D01*
X5777158Y737252D01*
X5800000Y734245D01*
X5822842Y737252D01*
X5844128Y746069D01*
X5862406Y760094D01*
X5876431Y778373D01*
X5885248Y799658D01*
X5888255Y822500D01*
X5950000D01*
Y1122500D01*
D02*
G37*
G36*
X3468900Y775300D02*
X3408700D01*
Y722600D01*
X3468900D01*
Y775300D01*
D02*
G37*
G36*
X3383300D02*
X3323100D01*
Y722600D01*
X3383300D01*
Y775300D01*
D02*
G37*
G36*
X3646400Y780299D02*
X3593700D01*
Y720100D01*
X3646400D01*
Y780299D01*
D02*
G37*
G36*
X3568300D02*
X3515600D01*
Y720100D01*
X3568300D01*
Y780299D01*
D02*
G37*
G36*
X3851000Y890500D02*
X3671000D01*
Y695500D01*
Y505500D01*
X3851000D01*
Y518873D01*
X3863700Y526153D01*
X3875468Y523000D01*
X3896532D01*
X3916879Y528452D01*
X3935121Y538984D01*
X3950016Y553879D01*
X3960548Y572121D01*
X3966000Y592468D01*
Y613532D01*
X3960548Y633879D01*
X3950016Y652121D01*
X3935121Y667016D01*
X3916879Y677548D01*
X3896532Y683000D01*
X3875468D01*
X3863700Y679846D01*
X3851000Y687127D01*
Y708873D01*
X3863700Y716153D01*
X3875468Y713000D01*
X3896532D01*
X3916879Y718452D01*
X3935121Y728984D01*
X3950016Y743879D01*
X3960548Y762121D01*
X3966000Y782468D01*
Y803532D01*
X3960548Y823878D01*
X3950016Y842121D01*
X3935121Y857016D01*
X3916879Y867548D01*
X3896532Y873000D01*
X3875468D01*
X3863700Y869846D01*
X3851000Y877127D01*
Y890500D01*
D02*
G37*
G36*
X3646400Y675900D02*
X3593700D01*
Y615700D01*
X3646400D01*
Y675900D01*
D02*
G37*
G36*
X3568300D02*
X3515600D01*
Y615700D01*
X3568300D01*
Y675900D01*
D02*
G37*
G36*
X3646400Y590300D02*
X3593700D01*
Y530100D01*
X3646400D01*
Y590300D01*
D02*
G37*
G36*
X3568300D02*
X3515600D01*
Y530100D01*
X3568300D01*
Y590300D01*
D02*
G37*
G36*
X1824000Y1176500D02*
X1644000D01*
Y1159000D01*
X1623468D01*
X1603121Y1153548D01*
X1584879Y1143016D01*
X1569984Y1128121D01*
X1559452Y1109879D01*
X1554000Y1089532D01*
Y1068468D01*
X1559452Y1048121D01*
X1569984Y1029879D01*
X1584879Y1014984D01*
X1603121Y1004452D01*
X1623468Y999000D01*
X1644000D01*
Y905000D01*
X1623468D01*
X1603121Y899548D01*
X1584879Y889016D01*
X1569984Y874121D01*
X1559452Y855879D01*
X1554000Y835532D01*
Y814468D01*
X1559452Y794121D01*
X1569984Y775879D01*
X1584363Y761500D01*
X1569984Y747121D01*
X1559452Y728879D01*
X1554000Y708532D01*
Y687468D01*
X1559452Y667121D01*
X1569984Y648879D01*
X1584363Y634500D01*
X1569984Y620121D01*
X1559452Y601879D01*
X1554000Y581532D01*
Y560468D01*
X1559452Y540121D01*
X1569984Y521879D01*
X1584363Y507500D01*
X1569984Y493121D01*
X1559452Y474879D01*
X1554000Y454532D01*
Y433468D01*
X1559452Y413121D01*
X1569984Y394879D01*
X1584879Y379984D01*
X1603121Y369452D01*
X1623468Y364000D01*
X1644000D01*
Y346500D01*
X1811300D01*
X1824000Y346500D01*
X1836700Y346500D01*
X2004000D01*
Y364000D01*
X2024532D01*
X2044879Y369452D01*
X2063121Y379984D01*
X2077500Y394363D01*
X2091879Y379984D01*
X2110121Y369452D01*
X2130468Y364000D01*
X2151532D01*
X2171879Y369452D01*
X2190121Y379984D01*
X2205016Y394879D01*
X2215548Y413121D01*
X2221000Y433468D01*
Y454532D01*
X2215548Y474879D01*
X2205016Y493121D01*
X2197441Y500696D01*
X2192243Y517831D01*
X2174415Y551186D01*
X2150421Y580421D01*
X2121186Y604415D01*
X2087831Y622243D01*
X2069300Y627864D01*
Y641136D01*
X2087831Y646757D01*
X2121186Y664585D01*
X2150421Y688579D01*
X2174415Y717814D01*
X2192243Y751169D01*
X2197441Y768304D01*
X2205016Y775879D01*
X2215548Y794121D01*
X2221000Y814468D01*
Y835532D01*
X2215548Y855879D01*
X2205016Y874121D01*
X2190121Y889016D01*
X2171879Y899548D01*
X2151532Y905000D01*
X2130468D01*
X2110121Y899548D01*
X2091879Y889016D01*
X2077500Y874637D01*
X2063121Y889016D01*
X2044879Y899548D01*
X2024532Y905000D01*
X2004000D01*
Y922500D01*
X1979400D01*
Y939300D01*
X1914000D01*
X1848600D01*
Y931480D01*
X1839620Y922500D01*
X1824000Y922500D01*
X1824000Y935199D01*
Y981500D01*
Y1176500D01*
D02*
G37*
G36*
X1979400Y2372900D02*
X1926700D01*
Y2312700D01*
X1979400D01*
Y2372900D01*
D02*
G37*
G36*
X1901300D02*
X1848600D01*
Y2312700D01*
X1901300D01*
Y2372900D01*
D02*
G37*
G36*
X1979400Y2287300D02*
X1914000D01*
X1848600D01*
Y2227100D01*
Y2177700D01*
X1914000D01*
X1979400D01*
Y2227100D01*
Y2287300D01*
D02*
G37*
G36*
Y2152300D02*
X1914000D01*
X1848600D01*
Y2092100D01*
Y2042700D01*
X1914000D01*
X1979400D01*
Y2092100D01*
Y2152300D01*
D02*
G37*
G36*
X1799400Y1612300D02*
X1746700D01*
Y1552100D01*
X1799400D01*
Y1612300D01*
D02*
G37*
%LPD*%
D10*
X5789395Y2110605D02*
G03*
X5609789Y2185000I-179605J-179605D01*
G01*
X5057500Y2882500D02*
G03*
X5255000Y2685000I197500J0D01*
G01*
X5789395Y2610605D02*
G03*
X5609790Y2685000I-179605J-179605D01*
G01*
X5327710Y1815000D02*
G03*
X5148105Y1740605I0J-254000D01*
G01*
X5800000Y1688750D02*
G03*
X5673750Y1815000I-126250J0D01*
G01*
X5789395Y2110605D02*
X5900000Y2000000D01*
X5452500Y2185000D02*
X5609789D01*
X5057500Y2882500D02*
Y3150000D01*
X5255000Y2685000D02*
X5452500D01*
X5609790D01*
X5789395Y2610605D02*
X5900000Y2500000D01*
X5057500Y1650000D02*
X5148105Y1740605D01*
X5452500Y1815000D02*
X5673750D01*
X5327710D02*
X5452500D01*
X5800000Y1562500D02*
Y1688750D01*
Y1412500D02*
Y1562500D01*
Y822500D02*
Y972500D01*
X5452500Y2185000D02*
Y2315000D01*
D11*
X4545500Y150000D02*
G03*
X4395500Y300000I-150000J0D01*
G01*
X4799500Y150000D02*
G03*
X4597000Y352500I-202500J0D01*
G01*
X5053500Y513500D02*
G03*
X4799500Y767500I-254000J0D01*
G01*
X4850000Y899000D02*
G03*
X4926500Y822500I76500J0D01*
G01*
X5307500Y568500D02*
G03*
X5053500Y822500I-254000J0D01*
G01*
X4850000Y1492500D02*
G03*
X4740000Y1602500I-110000J0D01*
G01*
X4477500Y863787D02*
G03*
X4573787Y767500I96287J0D01*
G01*
X4417500Y1602500D02*
G03*
X4345000Y1530000I0J-72500D01*
G01*
X2577500Y518783D02*
G03*
X2796283Y300000I218783J0D01*
G01*
X3396000Y528702D02*
G03*
X3572202Y352500I176202J0D01*
G01*
X4522500Y1095000D02*
G03*
X4477500Y1050000I0J-45000D01*
G01*
Y1335001D02*
G03*
X4522500Y1290000I45000J0D01*
G01*
X2771500Y1725000D02*
G03*
X3025500Y1979000I0J254000D01*
G01*
X3497000Y1525000D02*
G03*
X3597000Y1625000I0J100000D01*
G01*
X2141000Y444000D02*
G03*
X2014000Y571000I-127000J0D01*
G01*
Y698000D02*
G03*
X2141000Y825000I0J127000D01*
G01*
X446967Y1587500D02*
G03*
X537500Y1625000I0J128033D01*
G01*
X537558Y1625058D02*
G03*
X537500Y1625000I90475J-90590D01*
G01*
X628033Y1662500D02*
G03*
X537558Y1625058I0J-128032D01*
G01*
X432730Y1587500D02*
G03*
X351301Y1553801I0J-115230D01*
G01*
X351199Y1553699D02*
G03*
X317500Y1472270I81530J-81429D01*
G01*
X351301Y1553801D02*
G03*
X351250Y1553750I81429J-81530D01*
G01*
D02*
G03*
X351199Y1553699I81480J-81480D01*
G01*
X253750Y1015750D02*
G03*
X317500Y1169656I-153906J153906D01*
G01*
X691789Y176789D02*
G03*
X754000Y327109I-150503J150320D01*
G01*
X691697Y176697D02*
G03*
X691789Y176789I-150411J150411D01*
G01*
X265605Y114395D02*
G03*
X445210Y40000I179605J179605D01*
G01*
X449790D02*
G03*
X629395Y114395I0J254000D01*
G01*
X649250Y544250D02*
G03*
X622500Y479670I64580J-64580D01*
G01*
X713830Y571000D02*
G03*
X649250Y544250I0J-91330D01*
G01*
X569880Y315880D02*
G03*
X622500Y443000I-127239J127120D01*
G01*
X569821Y315820D02*
G03*
X569880Y315880I-127180J127180D01*
G01*
X496605Y899395D02*
G03*
X676210Y825000I179605J179605D01*
G01*
X754000Y698000D02*
G03*
X658402Y658402I0J-135196D01*
G01*
X2796283Y300000D02*
X4395500D01*
X3572202Y352500D02*
X4597000D01*
X4573787Y767500D02*
X4799500D01*
X5053500Y150000D02*
Y513500D01*
X4926500Y822500D02*
X5053500D01*
X5307500Y150000D02*
Y568500D01*
X4850000Y899000D02*
Y1492500D01*
X4477500Y863787D02*
Y942500D01*
X4417500Y1602500D02*
X4740000D01*
X4345000Y1442500D02*
Y1530000D01*
X4477500Y942500D02*
Y1050000D01*
X2577500Y518783D02*
Y571000D01*
X3396000Y528702D02*
Y608000D01*
X4933700Y977500D02*
X5057500D01*
Y1052500D01*
X4933700Y1407500D02*
X5057500D01*
Y1332500D02*
Y1407500D01*
X4522500Y1290000D02*
X4567500D01*
X4477500Y1335001D02*
Y1442500D01*
X4522500Y1095000D02*
X4567500D01*
X2671500Y1725000D02*
X2771500D01*
X3025500Y1979000D02*
Y3150000D01*
X3597000Y1625000D02*
Y1725000D01*
X2815000Y1525000D02*
X3497000D01*
X1914000Y571000D02*
X2014000D01*
X1914000Y698000D02*
X2014000D01*
X1914000Y825000D02*
X2014000D01*
X1914000Y444000D02*
X2014000D01*
X1634000Y825000D02*
X1734000D01*
X1634000Y698000D02*
X1734000D01*
X1634000Y571000D02*
X1734000D01*
X1634000Y444000D02*
X1734000D01*
X934000D02*
X1034000D01*
X934000Y571000D02*
X1034000D01*
X934000Y698000D02*
X1034000D01*
X934000Y825000D02*
X1034000D01*
X3941500Y2770000D02*
X4041500D01*
X3533500D02*
X3633500D01*
X4041500Y2950000D02*
Y3150000D01*
X3533500Y2950000D02*
Y3150000D01*
X2671500Y2770000D02*
X2771500D01*
X2263500D02*
X2363500D01*
X628033Y1662500D02*
X749000D01*
X432730Y1587500D02*
X446967D01*
X317500Y1169656D02*
Y1472270D01*
X190000Y952000D02*
X253750Y1015750D01*
X629395Y114395D02*
X691697Y176697D01*
X754000Y327109D02*
Y444000D01*
X445210Y40000D02*
X449790D01*
X190000Y190000D02*
X265605Y114395D01*
X713830Y571000D02*
X754000D01*
X622500Y443000D02*
Y479670D01*
X444000Y190000D02*
X569821Y315821D01*
X444000Y952000D02*
X496605Y899395D01*
X676210Y825000D02*
X754000D01*
X444000Y444000D02*
X658402Y658402D01*
D12*
X1734000Y1445000D02*
G03*
X1824000Y1355000I90000J0D01*
G01*
X2517500Y1189000D02*
G03*
X2764000Y942500I246500J0D01*
G01*
X2517500Y2296000D02*
G03*
X2256000Y2557500I-261500J0D01*
G01*
X4220325Y1009675D02*
G03*
X4382500Y942500I162175J162175D01*
G01*
X3194250Y708875D02*
G03*
X3295125Y608000I100875J0D01*
G01*
X3194250Y841625D02*
G03*
X3093375Y942500I-100875J0D01*
G01*
X3724000Y1879105D02*
G03*
X3550605Y2052500I-173395J0D01*
G01*
X1734000Y2547500D02*
G03*
X1724000Y2557500I-10000J0D01*
G01*
X799000Y1258500D02*
G03*
X844000Y1367140I-108640J108640D01*
G01*
X939000Y1750429D02*
G03*
X934000Y1762500I-17071J0D01*
G01*
X934000Y1206000D02*
G03*
X939000Y1218071I-12072J12072D01*
G01*
X1824000Y1355000D02*
X1914000D01*
X4657500Y1442500D02*
X4757500D01*
X1734000Y1445000D02*
Y1625000D01*
X1914000Y2165000D02*
X2039000D01*
X1914000Y2300000D02*
X2039000D01*
X1914000D02*
Y2425000D01*
X1724000Y2557500D02*
X2256000D01*
X2517500Y1189000D02*
Y2296000D01*
X2764000Y942500D02*
X2992500D01*
X1914000Y2030000D02*
Y2165000D01*
Y2300000D01*
X1734000Y1625000D02*
Y1760000D01*
X4382500Y942500D02*
X4477500D01*
X3295125Y608000D02*
X3396000D01*
X4037500Y1192500D02*
X4220325Y1009675D01*
X3761000Y603000D02*
X3886000D01*
X3761000Y793000D02*
X3886000D01*
X3194250Y708875D02*
Y841625D01*
X2992500Y942500D02*
X3093375D01*
X3406500Y2052500D02*
X3550605D01*
X3724000Y1497500D02*
Y1879105D01*
X1734000Y2300000D02*
Y2547500D01*
Y2165000D02*
Y2300000D01*
Y2030000D02*
Y2165000D01*
Y1895000D02*
Y2030000D01*
X1914000Y1500000D02*
Y1625000D01*
Y1760000D02*
Y1895000D01*
Y1625000D02*
Y1760000D01*
X1734000Y952000D02*
Y1079000D01*
X1634000D02*
X1734000D01*
X934000D02*
X1034000D01*
X934000Y952000D02*
Y1079000D01*
X2771500Y2950000D02*
Y3150000D01*
X2263500Y2950000D02*
Y3150000D01*
X754000Y1213500D02*
X799000Y1258500D01*
X939000Y1662500D02*
Y1750429D01*
X654000Y1387500D02*
X749000D01*
X844000D02*
Y1525000D01*
X754000Y1206000D02*
Y1213500D01*
Y952000D02*
Y1079000D01*
Y1206000D01*
X844000Y1367140D02*
Y1387500D01*
X934000Y1079000D02*
Y1206000D01*
X939000Y1218071D02*
Y1387500D01*
D13*
X2263500Y2770000D02*
D03*
Y2950000D02*
D03*
X2771500Y2770000D02*
D03*
Y2950000D02*
D03*
X3533500Y2770000D02*
D03*
Y2950000D02*
D03*
X4041500Y2770000D02*
D03*
Y2950000D02*
D03*
X3396000Y788000D02*
D03*
Y608000D02*
D03*
D17*
X5800000Y972500D02*
D03*
Y1412500D02*
D03*
D18*
X4657500Y1442500D02*
D03*
X4477500D02*
D03*
X4657500Y942500D02*
D03*
X4477500D02*
D03*
X3761000Y793000D02*
D03*
X3581000D02*
D03*
X3761000Y603000D02*
D03*
X3581000D02*
D03*
X1914000Y2300000D02*
D03*
X1734000D02*
D03*
X1914000Y2165000D02*
D03*
X1734000D02*
D03*
X1914000Y2030000D02*
D03*
X1734000D02*
D03*
X1914000Y1895000D02*
D03*
X1734000D02*
D03*
Y1760000D02*
D03*
X1914000D02*
D03*
X1734000Y1625000D02*
D03*
X1914000D02*
D03*
Y1079000D02*
D03*
X1734000D02*
D03*
X1914000Y952000D02*
D03*
X1734000D02*
D03*
Y825000D02*
D03*
X1914000D02*
D03*
X1734000Y698000D02*
D03*
X1914000D02*
D03*
X1734000Y571000D02*
D03*
X1914000D02*
D03*
X1734000Y444000D02*
D03*
X1914000D02*
D03*
X934000Y1206000D02*
D03*
X754000D02*
D03*
Y1079000D02*
D03*
X934000D02*
D03*
X754000Y952000D02*
D03*
X934000D02*
D03*
X754000Y825000D02*
D03*
X934000D02*
D03*
X754000Y698000D02*
D03*
X934000D02*
D03*
X754000Y571000D02*
D03*
X934000D02*
D03*
X754000Y444000D02*
D03*
X934000D02*
D03*
D27*
X5057500Y1650000D02*
D03*
Y3150000D02*
D03*
D28*
X4041500D02*
D03*
X2009500D02*
D03*
D29*
X3787500D02*
D03*
X3533500D02*
D03*
X3025500D02*
D03*
X2771500D02*
D03*
X2517500D02*
D03*
X2263500D02*
D03*
X190000Y444000D02*
D03*
Y698000D02*
D03*
Y952000D02*
D03*
Y1206000D02*
D03*
Y1460000D02*
D03*
X444000Y1714000D02*
D03*
Y1460000D02*
D03*
Y1206000D02*
D03*
Y952000D02*
D03*
Y698000D02*
D03*
Y444000D02*
D03*
Y190000D02*
D03*
X190000D02*
D03*
D30*
X5900000Y2500000D02*
D03*
D31*
X5900000Y2000000D02*
D03*
X1450000Y2825000D02*
D03*
D32*
X950000Y2825000D02*
D03*
D33*
X190000Y1714000D02*
D03*
D34*
X4291500Y150000D02*
D03*
X4799500D02*
D03*
X5561500D02*
D03*
X5053500D02*
D03*
X5307500D02*
D03*
X4545500D02*
D03*
D35*
X6150000Y350000D02*
D03*
Y3150000D02*
D03*
X350000D02*
D03*
D36*
X1634000Y952000D02*
D03*
X654000Y1387500D02*
D03*
X1914000Y1205000D02*
D03*
X3533500Y698000D02*
D03*
X4757500Y1442500D02*
D03*
X3824000Y1297500D02*
D03*
X3877000Y1097500D02*
D03*
X3597000Y2152500D02*
D03*
X3190000Y1097500D02*
D03*
X2661127Y1475000D02*
D03*
X2668627Y1825000D02*
D03*
X2392500Y1625000D02*
D03*
Y1825000D02*
D03*
Y1475000D02*
D03*
X2665000Y2025000D02*
D03*
X2392500D02*
D03*
X3279500Y3050000D02*
D03*
X1544000Y2037501D02*
D03*
Y1287500D02*
D03*
X1270000Y1447500D02*
D03*
X4657500Y1732500D02*
D03*
Y1922500D02*
D03*
X2039000Y2165000D02*
D03*
X2242500Y1625000D02*
D03*
X1914000Y1355000D02*
D03*
X2039000Y2300000D02*
D03*
X1914000Y2425000D02*
D03*
X2815000Y1975000D02*
D03*
X2357500Y2300000D02*
D03*
X2677500Y1200000D02*
D03*
X2992500Y698000D02*
D03*
Y444000D02*
D03*
X1634000Y317000D02*
D03*
Y190000D02*
D03*
X4345000Y1442500D02*
D03*
X2577500Y571000D02*
D03*
X5800000Y1562500D02*
D03*
Y822500D02*
D03*
X4933700Y977500D02*
D03*
Y1407500D02*
D03*
X4037500Y1192500D02*
D03*
X4567500Y1095000D02*
D03*
Y1290000D02*
D03*
X3886000Y793000D02*
D03*
Y603000D02*
D03*
X3295125Y608000D02*
D03*
X2671500Y1725000D02*
D03*
X3406500Y2052500D02*
D03*
X3724000Y1497500D02*
D03*
X3597000Y1725000D02*
D03*
X2815000Y1525000D02*
D03*
X1914000Y1500000D02*
D03*
X1724000Y2557500D02*
D03*
X2992500Y942500D02*
D03*
X2141000Y444000D02*
D03*
X2014000Y825000D02*
D03*
X2141000D02*
D03*
X2014000Y444000D02*
D03*
X1634000Y1079000D02*
D03*
Y444000D02*
D03*
Y571000D02*
D03*
Y698000D02*
D03*
Y825000D02*
D03*
X1034000Y1079000D02*
D03*
Y825000D02*
D03*
Y698000D02*
D03*
Y571000D02*
D03*
Y444000D02*
D03*
X3941500Y2770000D02*
D03*
X3633500D02*
D03*
X2363500Y2770000D02*
D03*
X2671500D02*
D03*
X844000Y1525000D02*
D03*
X934000Y1762500D02*
D03*
D37*
X5452500Y2685000D02*
D03*
Y2315000D02*
D03*
Y1815000D02*
D03*
Y2185000D02*
D03*
D38*
X5377500Y1332500D02*
D03*
X5057500D02*
D03*
X5377500Y1052500D02*
D03*
X5057500D02*
D03*
D39*
X939000Y1662500D02*
D03*
X749000D02*
D03*
Y1387500D02*
D03*
X844000D02*
D03*
X939000D02*
D03*
%TF.MD5,9de8830b3af1df75e325eb306196514b*%
M02*
