%TF.GenerationSoftware,Altium Limited,Altium Designer,24.1.2 (44)*%
G04 Layer_Color=8388736*
%FSLAX45Y45*%
%MOMM*%
%TF.SameCoordinates,791679A7-7A64-4111-B289-18E462613817*%
%TF.FilePolarity,Negative*%
%TF.FileFunction,Soldermask,Top*%
%TF.Part,Single*%
G01*
G75*
%TA.AperFunction,SMDPad,CuDef*%
%ADD46R,1.15320X1.00320*%
%ADD47R,1.10320X1.60320*%
%ADD48R,1.60320X1.10320*%
%ADD49R,0.80320X1.00320*%
%ADD50R,2.20320X2.20320*%
%ADD51R,1.00320X1.15320*%
%ADD52R,1.55320X0.57120*%
%ADD53R,1.15320X0.80320*%
%ADD54R,0.85320X1.55320*%
%ADD55R,1.20320X0.80320*%
%ADD56R,1.65320X0.50320*%
%ADD57R,0.50320X1.65320*%
%ADD58R,1.70320X1.20320*%
%ADD59R,2.40320X0.80320*%
%TA.AperFunction,ComponentPad*%
%ADD60C,1.70320*%
%ADD61R,2.00320X2.00320*%
%ADD62C,2.00320*%
%ADD63R,2.20320X2.20320*%
%ADD64C,2.20320*%
%ADD65R,2.20320X2.20320*%
%ADD66R,2.00320X2.00320*%
%TA.AperFunction,ViaPad*%
%ADD67C,1.72720*%
%ADD68C,5.20320*%
D46*
X4041500Y2770000D02*
D03*
Y2950000D02*
D03*
X3533500Y2770000D02*
D03*
Y2950000D02*
D03*
X2771500Y2770000D02*
D03*
Y2950000D02*
D03*
X2263500Y2770000D02*
D03*
Y2950000D02*
D03*
X3279500Y3330000D02*
D03*
Y3150000D02*
D03*
X1270000Y1572500D02*
D03*
Y1752500D02*
D03*
D47*
X5272500Y1472500D02*
D03*
X5482500D02*
D03*
X5272500Y912500D02*
D03*
X5482500D02*
D03*
D48*
X5272500Y1087500D02*
D03*
Y1297500D02*
D03*
X5482500Y1087500D02*
D03*
Y1297500D02*
D03*
D49*
X5057500Y1307500D02*
D03*
Y1077500D02*
D03*
D50*
X5800000Y1412500D02*
D03*
Y972500D02*
D03*
D51*
X4657500Y942500D02*
D03*
X4477500D02*
D03*
X4657500Y1442500D02*
D03*
X4477500D02*
D03*
X4657500Y1577500D02*
D03*
X4477500D02*
D03*
Y2077501D02*
D03*
X4657500D02*
D03*
X3777000Y2052500D02*
D03*
X3597000D02*
D03*
Y1097500D02*
D03*
X3777000D02*
D03*
X3470000D02*
D03*
X3290000D02*
D03*
X2677500Y1077500D02*
D03*
X2857500D02*
D03*
X2677500Y942500D02*
D03*
X2857500D02*
D03*
X2677500Y698000D02*
D03*
X2857500D02*
D03*
Y571000D02*
D03*
X2677500D02*
D03*
Y444000D02*
D03*
X2857500D02*
D03*
X2860000Y317000D02*
D03*
X2680000D02*
D03*
X2177500Y2557500D02*
D03*
X2357500D02*
D03*
X2177500Y2422500D02*
D03*
X2357500D02*
D03*
X1544000Y1387500D02*
D03*
X1724000D02*
D03*
X1544000Y1937501D02*
D03*
X1724000D02*
D03*
X754000Y1662500D02*
D03*
X934000D02*
D03*
X754000Y1387500D02*
D03*
X934000D02*
D03*
D52*
X4345000Y1290000D02*
D03*
Y1225000D02*
D03*
Y1160000D02*
D03*
Y1095000D02*
D03*
X4790000Y1290000D02*
D03*
Y1225000D02*
D03*
Y1160000D02*
D03*
Y1095000D02*
D03*
D53*
X4450000Y1922500D02*
D03*
Y1732500D02*
D03*
X4685000Y1827500D02*
D03*
D54*
X3724000Y1852500D02*
D03*
X3597000D02*
D03*
X3470000D02*
D03*
X3343000D02*
D03*
X3724000Y1297500D02*
D03*
X3597000D02*
D03*
X3470000D02*
D03*
X3343000D02*
D03*
D55*
X3396000Y603000D02*
D03*
Y793000D02*
D03*
X3671000D02*
D03*
Y698000D02*
D03*
Y603000D02*
D03*
X1771500Y1757500D02*
D03*
Y1567500D02*
D03*
X1496500D02*
D03*
Y1662500D02*
D03*
Y1757500D02*
D03*
D56*
X2095000Y2025000D02*
D03*
Y1975000D02*
D03*
Y1925000D02*
D03*
Y1875000D02*
D03*
Y1825000D02*
D03*
Y1775000D02*
D03*
Y1725000D02*
D03*
Y1675000D02*
D03*
Y1625000D02*
D03*
Y1575000D02*
D03*
Y1525000D02*
D03*
Y1475000D02*
D03*
X2940000D02*
D03*
Y1525000D02*
D03*
Y1575000D02*
D03*
Y1625000D02*
D03*
Y1675000D02*
D03*
Y1725000D02*
D03*
Y1775000D02*
D03*
Y1825000D02*
D03*
Y1875000D02*
D03*
Y1925000D02*
D03*
Y1975000D02*
D03*
Y2025000D02*
D03*
D57*
X2242500Y1327500D02*
D03*
X2292500D02*
D03*
X2342500D02*
D03*
X2392500D02*
D03*
X2442500D02*
D03*
X2492500D02*
D03*
X2542500D02*
D03*
X2592500D02*
D03*
X2642500D02*
D03*
X2692500D02*
D03*
X2742500D02*
D03*
X2792500D02*
D03*
Y2172500D02*
D03*
X2742500D02*
D03*
X2692500D02*
D03*
X2642500D02*
D03*
X2592500D02*
D03*
X2542500D02*
D03*
X2492500D02*
D03*
X2442500D02*
D03*
X2392500D02*
D03*
X2342500D02*
D03*
X2292500D02*
D03*
X2242500D02*
D03*
D58*
X1270000D02*
D03*
X950000D02*
D03*
D59*
X1824000Y190000D02*
D03*
Y317000D02*
D03*
Y444000D02*
D03*
Y571000D02*
D03*
Y698000D02*
D03*
Y825000D02*
D03*
Y952000D02*
D03*
Y1079000D02*
D03*
X844000Y190000D02*
D03*
Y317000D02*
D03*
Y444000D02*
D03*
Y571000D02*
D03*
Y698000D02*
D03*
Y825000D02*
D03*
Y952000D02*
D03*
Y1079000D02*
D03*
D60*
X5057500Y1650000D02*
D03*
Y3150000D02*
D03*
D61*
X4041500D02*
D03*
X2009500D02*
D03*
D62*
X3787500D02*
D03*
X3533500D02*
D03*
X3025500D02*
D03*
X2771500D02*
D03*
X2517500D02*
D03*
X2263500D02*
D03*
X190000Y444000D02*
D03*
Y698000D02*
D03*
Y952000D02*
D03*
Y1206000D02*
D03*
Y1460000D02*
D03*
X444000Y1714000D02*
D03*
Y1460000D02*
D03*
Y1206000D02*
D03*
Y952000D02*
D03*
Y698000D02*
D03*
Y444000D02*
D03*
Y190000D02*
D03*
X190000D02*
D03*
D63*
X5900000Y2500000D02*
D03*
D64*
X5900000Y2000000D02*
D03*
X1450000Y2825000D02*
D03*
D65*
X950000Y2825000D02*
D03*
D66*
X190000Y1714000D02*
D03*
D67*
X4291500Y150000D02*
D03*
X4799500D02*
D03*
X5561500D02*
D03*
X5053500D02*
D03*
X5307500D02*
D03*
X4545500D02*
D03*
D68*
X6150000Y350000D02*
D03*
Y3150000D02*
D03*
X350000D02*
D03*
%TF.MD5,ab6e87941e31342c2339a5c1cb2bc320*%
M02*
