%TF.GenerationSoftware,Altium Limited,Altium Designer,24.1.2 (44)*%
G04 Layer_Color=32896*
%FSLAX45Y45*%
%MOMM*%
%TF.SameCoordinates,791679A7-7A64-4111-B289-18E462613817*%
%TF.FilePolarity,Positive*%
%TF.FileFunction,Legend,Bot*%
%TF.Part,Single*%
G01*
G75*
%TA.AperFunction,NonConductor*%
%ADD40C,0.10000*%
%ADD41C,0.25000*%
%ADD43C,1.00000*%
%ADD44C,0.20000*%
D40*
X4437500Y1005000D02*
G03*
X4422500Y990000I0J-15000D01*
G01*
Y895000D02*
G03*
X4437500Y880000I15000J0D01*
G01*
X4712500Y990000D02*
G03*
X4697500Y1005000I-15000J0D01*
G01*
Y880000D02*
G03*
X4712500Y895000I0J15000D01*
G01*
X5587500Y1750000D02*
G03*
X5602500Y1765000I0J15000D01*
G01*
X5302500D02*
G03*
X5317500Y1750000I15000J0D01*
G01*
X5317500Y2250000D02*
G03*
X5302500Y2235000I0J-15000D01*
G01*
X5602500D02*
G03*
X5587500Y2250000I-15000J0D01*
G01*
X5040000Y1212500D02*
G03*
X5040000Y1212500I-5000J0D01*
G01*
Y932500D02*
G03*
X5040000Y932500I-5000J0D01*
G01*
X3333500Y568000D02*
G03*
X3348500Y553000I15000J0D01*
G01*
X3443500D02*
G03*
X3458500Y568000I0J15000D01*
G01*
X3348500Y843000D02*
G03*
X3333500Y828000I0J-15000D01*
G01*
X3458500D02*
G03*
X3443500Y843000I-15000J0D01*
G01*
X3541000Y665500D02*
G03*
X3526000Y650500I0J-15000D01*
G01*
Y555500D02*
G03*
X3541000Y540500I15000J0D01*
G01*
X3816000Y650500D02*
G03*
X3801000Y665500I-15000J0D01*
G01*
Y540500D02*
G03*
X3816000Y555500I0J15000D01*
G01*
X1694000Y2362500D02*
G03*
X1679000Y2347500I0J-15000D01*
G01*
Y2252500D02*
G03*
X1694000Y2237500I15000J0D01*
G01*
X1969000Y2347500D02*
G03*
X1954000Y2362500I-15000J0D01*
G01*
Y2237500D02*
G03*
X1969000Y2252500I0J15000D01*
G01*
X1694000Y2227500D02*
G03*
X1679000Y2212500I0J-15000D01*
G01*
Y2117500D02*
G03*
X1694000Y2102500I15000J0D01*
G01*
X1969000Y2212500D02*
G03*
X1954000Y2227500I-15000J0D01*
G01*
Y2102500D02*
G03*
X1969000Y2117500I0J15000D01*
G01*
X1694000Y2092500D02*
G03*
X1679000Y2077500I0J-15000D01*
G01*
Y1982500D02*
G03*
X1694000Y1967500I15000J0D01*
G01*
X1969000Y2077500D02*
G03*
X1954000Y2092500I-15000J0D01*
G01*
Y1967500D02*
G03*
X1969000Y1982500I0J15000D01*
G01*
X1954000Y1697500D02*
G03*
X1969000Y1712500I0J15000D01*
G01*
Y1807500D02*
G03*
X1954000Y1822500I-15000J0D01*
G01*
X1679000Y1712500D02*
G03*
X1694000Y1697500I15000J0D01*
G01*
Y1822500D02*
G03*
X1679000Y1807500I0J-15000D01*
G01*
X1954000Y1562500D02*
G03*
X1969000Y1577500I0J15000D01*
G01*
Y1672500D02*
G03*
X1954000Y1687500I-15000J0D01*
G01*
X1679000Y1577500D02*
G03*
X1694000Y1562500I15000J0D01*
G01*
Y1687500D02*
G03*
X1679000Y1672500I0J-15000D01*
G01*
X1694000Y1141500D02*
G03*
X1679000Y1126500I0J-15000D01*
G01*
Y1031500D02*
G03*
X1694000Y1016500I15000J0D01*
G01*
X1969000Y1126500D02*
G03*
X1954000Y1141500I-15000J0D01*
G01*
Y1016500D02*
G03*
X1969000Y1031500I0J15000D01*
G01*
X1694000Y1014500D02*
G03*
X1679000Y999500I0J-15000D01*
G01*
Y904500D02*
G03*
X1694000Y889500I15000J0D01*
G01*
X1969000Y999500D02*
G03*
X1954000Y1014500I-15000J0D01*
G01*
Y889500D02*
G03*
X1969000Y904500I0J15000D01*
G01*
X714000Y1268500D02*
G03*
X699000Y1253500I0J-15000D01*
G01*
Y1158500D02*
G03*
X714000Y1143500I15000J0D01*
G01*
X989000Y1253500D02*
G03*
X974000Y1268500I-15000J0D01*
G01*
Y1143500D02*
G03*
X989000Y1158500I0J15000D01*
G01*
X974000Y1016500D02*
G03*
X989000Y1031500I0J15000D01*
G01*
Y1126500D02*
G03*
X974000Y1141500I-15000J0D01*
G01*
X699000Y1031500D02*
G03*
X714000Y1016500I15000J0D01*
G01*
Y1141500D02*
G03*
X699000Y1126500I0J-15000D01*
G01*
X974000Y889500D02*
G03*
X989000Y904500I0J15000D01*
G01*
Y999500D02*
G03*
X974000Y1014500I-15000J0D01*
G01*
X699000Y904500D02*
G03*
X714000Y889500I15000J0D01*
G01*
Y1014500D02*
G03*
X699000Y999500I0J-15000D01*
G01*
X4422500Y1505000D02*
X4712500D01*
Y1380000D02*
Y1505000D01*
X4422500Y1380000D02*
X4712500D01*
X4422500D02*
Y1505000D01*
Y895000D02*
Y990000D01*
X4437500Y1005000D02*
X4697500D01*
X4437500Y880000D02*
X4697500D01*
X4712500Y895000D02*
Y990000D01*
X3526000Y855500D02*
X3816000D01*
Y730500D02*
Y855500D01*
X3526000Y730500D02*
X3816000D01*
X3526000D02*
Y855500D01*
X2326000Y2715000D02*
Y3005000D01*
X2201000Y2715000D02*
X2326000D01*
X2201000D02*
Y3005000D01*
X2326000D01*
X2834000Y2715000D02*
Y3005000D01*
X2709000Y2715000D02*
X2834000D01*
X2709000D02*
Y3005000D01*
X2834000D01*
X3596000Y2715000D02*
Y3005000D01*
X3471000Y2715000D02*
X3596000D01*
X3471000D02*
Y3005000D01*
X3596000D01*
X4104000Y2715000D02*
Y3005000D01*
X3979000Y2715000D02*
X4104000D01*
X3979000D02*
Y3005000D01*
X4104000D01*
X5602500Y2250000D02*
Y2750000D01*
X5302500Y2250000D02*
Y2750000D01*
Y2250000D02*
X5602500D01*
X5302500Y2750000D02*
X5602500D01*
X5317500Y1750000D02*
X5587500D01*
X5302500Y1765000D02*
Y2235000D01*
X5602500Y1765000D02*
Y2235000D01*
X5317500Y2250000D02*
X5587500D01*
X5912500Y962500D02*
X5950000D01*
X5912500Y1422500D02*
X5950000D01*
X5650000Y962500D02*
X5687500D01*
X5650000Y1422500D02*
X5687500D01*
X5950000Y962500D02*
Y1422500D01*
X5650000Y962500D02*
Y1422500D01*
X3348500Y553000D02*
X3443500D01*
X3333500Y568000D02*
Y828000D01*
X3458500Y568000D02*
Y828000D01*
X3348500Y843000D02*
X3443500D01*
X3526000Y555500D02*
Y650500D01*
X3541000Y665500D02*
X3801000D01*
X3541000Y540500D02*
X3801000D01*
X3816000Y555500D02*
Y650500D01*
X1679000Y2252500D02*
Y2347500D01*
X1694000Y2362500D02*
X1954000D01*
X1694000Y2237500D02*
X1954000D01*
X1969000Y2252500D02*
Y2347500D01*
X1679000Y2117500D02*
Y2212500D01*
X1694000Y2227500D02*
X1954000D01*
X1694000Y2102500D02*
X1954000D01*
X1969000Y2117500D02*
Y2212500D01*
X1679000Y1982500D02*
Y2077500D01*
X1694000Y2092500D02*
X1954000D01*
X1694000Y1967500D02*
X1954000D01*
X1969000Y1982500D02*
Y2077500D01*
X1679000Y1942500D02*
X1694000Y1957500D01*
X1679000Y1847500D02*
X1694000Y1832500D01*
X1954000D02*
X1969000Y1847500D01*
X1679000D02*
Y1942500D01*
X1694000Y1957500D02*
X1954000D01*
X1694000Y1832500D02*
X1954000D01*
X1969000Y1847500D02*
Y1942500D01*
X1954000Y1957500D02*
X1969000Y1942500D01*
Y1712500D02*
Y1807500D01*
X1694000Y1697500D02*
X1954000D01*
X1694000Y1822500D02*
X1954000D01*
X1679000Y1712500D02*
Y1807500D01*
X1969000Y1577500D02*
Y1672500D01*
X1694000Y1562500D02*
X1954000D01*
X1694000Y1687500D02*
X1954000D01*
X1679000Y1577500D02*
Y1672500D01*
Y1031500D02*
Y1126500D01*
X1694000Y1141500D02*
X1954000D01*
X1694000Y1016500D02*
X1954000D01*
X1969000Y1031500D02*
Y1126500D01*
X1679000Y904500D02*
Y999500D01*
X1694000Y1014500D02*
X1954000D01*
X1694000Y889500D02*
X1954000D01*
X1969000Y904500D02*
Y999500D01*
X1679000Y762500D02*
Y887500D01*
Y762500D02*
X1969000D01*
Y887500D01*
X1679000D02*
X1969000D01*
X1679000Y635500D02*
Y760500D01*
Y635500D02*
X1969000D01*
Y760500D01*
X1679000D02*
X1969000D01*
X1679000Y508500D02*
Y633500D01*
Y508500D02*
X1969000D01*
Y633500D01*
X1679000D02*
X1969000D01*
X1679000Y381500D02*
Y506500D01*
Y381500D02*
X1969000D01*
Y506500D01*
X1679000D02*
X1969000D01*
X689000Y1575000D02*
X999000D01*
X689000Y1475000D02*
X999000D01*
X689000D02*
Y1575000D01*
X999000Y1475000D02*
Y1575000D01*
X699000Y1158500D02*
Y1253500D01*
X714000Y1268500D02*
X974000D01*
X714000Y1143500D02*
X974000D01*
X989000Y1158500D02*
Y1253500D01*
Y1031500D02*
Y1126500D01*
X714000Y1016500D02*
X974000D01*
X714000Y1141500D02*
X974000D01*
X699000Y1031500D02*
Y1126500D01*
X989000Y904500D02*
Y999500D01*
X714000Y889500D02*
X974000D01*
X714000Y1014500D02*
X974000D01*
X699000Y904500D02*
Y999500D01*
Y762500D02*
Y887500D01*
Y762500D02*
X989000D01*
Y887500D01*
X699000D02*
X989000D01*
X699000Y635500D02*
Y760500D01*
Y635500D02*
X989000D01*
Y760500D01*
X699000D02*
X989000D01*
X699000Y508500D02*
Y633500D01*
Y508500D02*
X989000D01*
Y633500D01*
X699000D02*
X989000D01*
X699000Y381500D02*
Y506500D01*
Y381500D02*
X989000D01*
Y506500D01*
X699000D02*
X989000D01*
X65009Y1332814D02*
X565009D01*
X65008Y37812D02*
Y1865816D01*
X65009Y1586814D02*
X565009D01*
X65008Y1865816D02*
X565010D01*
X315009Y37812D02*
Y1865816D01*
X65009Y316814D02*
X565009D01*
X565010Y37812D02*
Y1865816D01*
X65009Y570814D02*
X565009D01*
X65009Y1078814D02*
X565009D01*
X65008Y37812D02*
X565010D01*
X65009Y824814D02*
X565009D01*
X5510790Y842484D02*
Y775839D01*
X5477468Y742516D01*
X5444145Y775839D01*
Y842484D01*
X5410823D02*
Y742516D01*
X5360839D01*
X5344178Y759178D01*
Y825823D01*
X5360839Y842484D01*
X5410823D01*
X5244210D02*
X5277532Y825823D01*
X5310855Y792500D01*
Y759178D01*
X5294193Y742516D01*
X5260871D01*
X5244210Y759178D01*
Y775839D01*
X5260871Y792500D01*
X5310855D01*
X5510790Y1642484D02*
Y1575839D01*
X5477468Y1542516D01*
X5444145Y1575839D01*
Y1642484D01*
X5410823D02*
Y1542516D01*
X5360839D01*
X5344178Y1559177D01*
Y1625823D01*
X5360839Y1642484D01*
X5410823D01*
X5244210D02*
X5310855D01*
Y1592500D01*
X5277532Y1609161D01*
X5260871D01*
X5244210Y1592500D01*
Y1559177D01*
X5260871Y1542516D01*
X5294193D01*
X5310855Y1559177D01*
X6273290Y1242484D02*
Y1175839D01*
X6239968Y1142516D01*
X6206645Y1175839D01*
Y1242484D01*
X6173322D02*
Y1142516D01*
X6123339D01*
X6106677Y1159178D01*
Y1225823D01*
X6123339Y1242484D01*
X6173322D01*
X6073355Y1225823D02*
X6056693Y1242484D01*
X6023371D01*
X6006710Y1225823D01*
Y1209161D01*
X6023371Y1192500D01*
X6040032D01*
X6023371D01*
X6006710Y1175839D01*
Y1159178D01*
X6023371Y1142516D01*
X6056693D01*
X6073355Y1159178D01*
X5239960Y2450016D02*
Y2549984D01*
X5189976D01*
X5173315Y2533323D01*
Y2500000D01*
X5189976Y2483339D01*
X5239960D01*
X5206637D02*
X5173315Y2450016D01*
X5139992D02*
X5106669D01*
X5123330D01*
Y2549984D01*
X5139992Y2533323D01*
X5056685Y2549984D02*
X4990040D01*
Y2533323D01*
X5056685Y2466678D01*
Y2450016D01*
X4692459Y1542516D02*
Y1642484D01*
X4642476D01*
X4625814Y1625823D01*
Y1592500D01*
X4642476Y1575839D01*
X4692459D01*
X4659137D02*
X4625814Y1542516D01*
X4592492D02*
X4559169D01*
X4575830D01*
Y1642484D01*
X4592492Y1625823D01*
X4442540Y1642484D02*
X4475863Y1625823D01*
X4509185Y1592500D01*
Y1559177D01*
X4492524Y1542516D01*
X4459201D01*
X4442540Y1559177D01*
Y1575839D01*
X4459201Y1592500D01*
X4509185D01*
X5164984Y2033323D02*
X5181645Y2049984D01*
X5214967D01*
X5231629Y2033323D01*
Y1966678D01*
X5214967Y1950016D01*
X5181645D01*
X5164984Y1966678D01*
X5131661Y2033323D02*
X5115000Y2049984D01*
X5081677D01*
X5065016Y2033323D01*
Y2016661D01*
X5081677Y2000000D01*
X5098339D01*
X5081677D01*
X5065016Y1983339D01*
Y1966678D01*
X5081677Y1950016D01*
X5115000D01*
X5131661Y1966678D01*
X5031693Y1950016D02*
X4998371D01*
X5015032D01*
Y2049984D01*
X5031693Y2033323D01*
X4634145Y825823D02*
X4650806Y842484D01*
X4684129D01*
X4700790Y825823D01*
Y759178D01*
X4684129Y742516D01*
X4650806D01*
X4634145Y759178D01*
X4534177Y742516D02*
X4600822D01*
X4534177Y809161D01*
Y825823D01*
X4550838Y842484D01*
X4584161D01*
X4600822Y825823D01*
X4500855D02*
X4484193Y842484D01*
X4450871D01*
X4434210Y825823D01*
Y809161D01*
X4450871Y792500D01*
X4434210Y775839D01*
Y759178D01*
X4450871Y742516D01*
X4484193D01*
X4500855Y759178D01*
Y775839D01*
X4484193Y792500D01*
X4500855Y809161D01*
Y825823D01*
X4484193Y792500D02*
X4450871D01*
X3795960Y902016D02*
Y1001984D01*
X3745976D01*
X3729315Y985322D01*
Y952000D01*
X3745976Y935338D01*
X3795960D01*
X3762637D02*
X3729315Y902016D01*
X3695992D02*
X3662669D01*
X3679330D01*
Y1001984D01*
X3695992Y985322D01*
X3612685D02*
X3596024Y1001984D01*
X3562702D01*
X3546040Y985322D01*
Y918677D01*
X3562702Y902016D01*
X3596024D01*
X3612685Y918677D01*
Y985322D01*
X3216645Y731322D02*
X3233306Y747984D01*
X3266629D01*
X3283290Y731322D01*
Y664677D01*
X3266629Y648016D01*
X3233306D01*
X3216645Y664677D01*
X3116678Y648016D02*
X3183323D01*
X3116678Y714661D01*
Y731322D01*
X3133339Y747984D01*
X3166661D01*
X3183323Y731322D01*
X3016710Y747984D02*
X3083355D01*
Y698000D01*
X3050032Y714661D01*
X3033371D01*
X3016710Y698000D01*
Y664677D01*
X3033371Y648016D01*
X3066693D01*
X3083355Y664677D01*
X3737645Y477322D02*
X3754306Y493984D01*
X3787629D01*
X3804290Y477322D01*
Y410677D01*
X3787629Y394016D01*
X3754306D01*
X3737645Y410677D01*
X3637678Y394016D02*
X3704323D01*
X3637678Y460661D01*
Y477322D01*
X3654339Y493984D01*
X3687661D01*
X3704323Y477322D01*
X3554371Y394016D02*
Y493984D01*
X3604355Y444000D01*
X3537710D01*
X2254960Y1944984D02*
Y1845016D01*
X2188315D01*
X2154992D02*
X2121669D01*
X2138330D01*
Y1944984D01*
X2154992Y1928323D01*
X2188315Y2063323D02*
X2204976Y2079984D01*
X2238298D01*
X2254960Y2063323D01*
Y1996677D01*
X2238298Y1980016D01*
X2204976D01*
X2188315Y1996677D01*
X2154992Y1980016D02*
X2121669D01*
X2138330D01*
Y2079984D01*
X2154992Y2063323D01*
X2071685D02*
X2055024Y2079984D01*
X2021702D01*
X2005040Y2063323D01*
Y2046661D01*
X2021702Y2030000D01*
X2005040Y2013339D01*
Y1996677D01*
X2021702Y1980016D01*
X2055024D01*
X2071685Y1996677D01*
Y2013339D01*
X2055024Y2030000D01*
X2071685Y2046661D01*
Y2063323D01*
X2055024Y2030000D02*
X2021702D01*
X2188315Y2198323D02*
X2204976Y2214984D01*
X2238298D01*
X2254960Y2198323D01*
Y2131677D01*
X2238298Y2115016D01*
X2204976D01*
X2188315Y2131677D01*
X2154992Y2115016D02*
X2121669D01*
X2138330D01*
Y2214984D01*
X2154992Y2198323D01*
X2071685Y2214984D02*
X2005040D01*
Y2198323D01*
X2071685Y2131677D01*
Y2115016D01*
X2188315Y2333322D02*
X2204976Y2349984D01*
X2238298D01*
X2254960Y2333322D01*
Y2266677D01*
X2238298Y2250016D01*
X2204976D01*
X2188315Y2266677D01*
X2154992Y2250016D02*
X2121669D01*
X2138330D01*
Y2349984D01*
X2154992Y2333322D01*
X2005040Y2349984D02*
X2038363Y2333322D01*
X2071685Y2300000D01*
Y2266677D01*
X2055024Y2250016D01*
X2021702D01*
X2005040Y2266677D01*
Y2283339D01*
X2021702Y2300000D01*
X2071685D01*
X2188315Y1793323D02*
X2204976Y1809984D01*
X2238298D01*
X2254960Y1793323D01*
Y1726678D01*
X2238298Y1710016D01*
X2204976D01*
X2188315Y1726678D01*
X2154992Y1710016D02*
X2121669D01*
X2138330D01*
Y1809984D01*
X2154992Y1793323D01*
X2005040Y1809984D02*
X2071685D01*
Y1760000D01*
X2038363Y1776661D01*
X2021702D01*
X2005040Y1760000D01*
Y1726678D01*
X2021702Y1710016D01*
X2055024D01*
X2071685Y1726678D01*
X2188315Y1658323D02*
X2204976Y1674984D01*
X2238298D01*
X2254960Y1658323D01*
Y1591678D01*
X2238298Y1575016D01*
X2204976D01*
X2188315Y1591678D01*
X2154992Y1575016D02*
X2121669D01*
X2138330D01*
Y1674984D01*
X2154992Y1658323D01*
X2021702Y1575016D02*
Y1674984D01*
X2071685Y1625000D01*
X2005040D01*
X3666790Y2520016D02*
Y2619984D01*
X3616806D01*
X3600145Y2603322D01*
Y2570000D01*
X3616806Y2553339D01*
X3666790D01*
X3633468D02*
X3600145Y2520016D01*
X3500177D02*
X3566822D01*
X3500177Y2586661D01*
Y2603322D01*
X3516839Y2619984D01*
X3550161D01*
X3566822Y2603322D01*
X3466855Y2619984D02*
X3400210D01*
Y2603322D01*
X3466855Y2536677D01*
Y2520016D01*
X4174790D02*
Y2619984D01*
X4124806D01*
X4108145Y2603322D01*
Y2570000D01*
X4124806Y2553339D01*
X4174790D01*
X4141468D02*
X4108145Y2520016D01*
X4008177D02*
X4074822D01*
X4008177Y2586661D01*
Y2603322D01*
X4024839Y2619984D01*
X4058161D01*
X4074822Y2603322D01*
X3908210Y2619984D02*
X3941532Y2603322D01*
X3974855Y2570000D01*
Y2536677D01*
X3958193Y2520016D01*
X3924871D01*
X3908210Y2536677D01*
Y2553339D01*
X3924871Y2570000D01*
X3974855D01*
X2904790Y2520016D02*
Y2619984D01*
X2854806D01*
X2838145Y2603322D01*
Y2570000D01*
X2854806Y2553339D01*
X2904790D01*
X2871468D02*
X2838145Y2520016D01*
X2738177D02*
X2804822D01*
X2738177Y2586661D01*
Y2603322D01*
X2754839Y2619984D01*
X2788161D01*
X2804822Y2603322D01*
X2704855D02*
X2688193Y2619984D01*
X2654871D01*
X2638210Y2603322D01*
Y2586661D01*
X2654871Y2570000D01*
X2671532D01*
X2654871D01*
X2638210Y2553339D01*
Y2536677D01*
X2654871Y2520016D01*
X2688193D01*
X2704855Y2536677D01*
X2396790Y2520016D02*
Y2619984D01*
X2346806D01*
X2330145Y2603322D01*
Y2570000D01*
X2346806Y2553339D01*
X2396790D01*
X2363468D02*
X2330145Y2520016D01*
X2230177D02*
X2296822D01*
X2230177Y2586661D01*
Y2603322D01*
X2246839Y2619984D01*
X2280161D01*
X2296822Y2603322D01*
X2130210Y2520016D02*
X2196855D01*
X2130210Y2586661D01*
Y2603322D01*
X2146871Y2619984D01*
X2180193D01*
X2196855Y2603322D01*
X858290Y1862484D02*
Y1762516D01*
X808306D01*
X791645Y1779178D01*
Y1845823D01*
X808306Y1862484D01*
X858290D01*
X758323Y1762516D02*
Y1829161D01*
X725000Y1862484D01*
X691678Y1829161D01*
Y1762516D01*
Y1812500D01*
X758323D01*
X591710Y1762516D02*
X658355D01*
X591710Y1829161D01*
Y1845823D01*
X608371Y1862484D01*
X641693D01*
X658355Y1845823D01*
X1181661Y1105823D02*
X1198322Y1122484D01*
X1231645D01*
X1248306Y1105823D01*
Y1039178D01*
X1231645Y1022516D01*
X1198322D01*
X1181661Y1039178D01*
X1098355Y1022516D02*
Y1122484D01*
X1148339Y1072500D01*
X1081694D01*
X2188315Y1112322D02*
X2204976Y1128984D01*
X2238298D01*
X2254960Y1112322D01*
Y1045677D01*
X2238298Y1029016D01*
X2204976D01*
X2188315Y1045677D01*
X2154992D02*
X2138330Y1029016D01*
X2105008D01*
X2088347Y1045677D01*
Y1112322D01*
X2105008Y1128984D01*
X2138330D01*
X2154992Y1112322D01*
Y1095661D01*
X2138330Y1079000D01*
X2088347D01*
X2188315Y985322D02*
X2204976Y1001984D01*
X2238298D01*
X2254960Y985322D01*
Y918677D01*
X2238298Y902016D01*
X2204976D01*
X2188315Y918677D01*
X2154992Y985322D02*
X2138330Y1001984D01*
X2105008D01*
X2088347Y985322D01*
Y968661D01*
X2105008Y952000D01*
X2088347Y935338D01*
Y918677D01*
X2105008Y902016D01*
X2138330D01*
X2154992Y918677D01*
Y935338D01*
X2138330Y952000D01*
X2154992Y968661D01*
Y985322D01*
X2138330Y952000D02*
X2105008D01*
X1181661Y988323D02*
X1198322Y1004984D01*
X1231645D01*
X1248306Y988323D01*
Y921678D01*
X1231645Y905016D01*
X1198322D01*
X1181661Y921678D01*
X1081694Y1004984D02*
X1115016Y988323D01*
X1148339Y955000D01*
Y921678D01*
X1131677Y905016D01*
X1098355D01*
X1081694Y921678D01*
Y938339D01*
X1098355Y955000D01*
X1148339D01*
X1181661Y863323D02*
X1198322Y879984D01*
X1231645D01*
X1248306Y863323D01*
Y796678D01*
X1231645Y780016D01*
X1198322D01*
X1181661Y796678D01*
X1081694Y879984D02*
X1148339D01*
Y830000D01*
X1115016Y846661D01*
X1098355D01*
X1081694Y830000D01*
Y796678D01*
X1098355Y780016D01*
X1131677D01*
X1148339Y796678D01*
X2254960Y521016D02*
Y620984D01*
X2204976D01*
X2188315Y604322D01*
Y571000D01*
X2204976Y554338D01*
X2254960D01*
X2221637D02*
X2188315Y521016D01*
X2154992Y537677D02*
X2138330Y521016D01*
X2105008D01*
X2088347Y537677D01*
Y604322D01*
X2105008Y620984D01*
X2138330D01*
X2154992Y604322D01*
Y587661D01*
X2138330Y571000D01*
X2088347D01*
X2254960Y394016D02*
Y493984D01*
X2204976D01*
X2188315Y477322D01*
Y444000D01*
X2204976Y427338D01*
X2254960D01*
X2221637D02*
X2188315Y394016D01*
X2154992Y493984D02*
X2088347D01*
Y477322D01*
X2154992Y410677D01*
Y394016D01*
X2254960Y648016D02*
Y747984D01*
X2204976D01*
X2188315Y731322D01*
Y698000D01*
X2204976Y681338D01*
X2254960D01*
X2221637D02*
X2188315Y648016D01*
X2088347Y747984D02*
X2154992D01*
Y698000D01*
X2121669Y714661D01*
X2105008D01*
X2088347Y698000D01*
Y664677D01*
X2105008Y648016D01*
X2138330D01*
X2154992Y664677D01*
X2254960Y775016D02*
Y874984D01*
X2204976D01*
X2188315Y858322D01*
Y825000D01*
X2204976Y808338D01*
X2254960D01*
X2221637D02*
X2188315Y775016D01*
X2154992Y858322D02*
X2138330Y874984D01*
X2105008D01*
X2088347Y858322D01*
Y841661D01*
X2105008Y825000D01*
X2121669D01*
X2105008D01*
X2088347Y808338D01*
Y791677D01*
X2105008Y775016D01*
X2138330D01*
X2154992Y791677D01*
X1238306Y420016D02*
Y519984D01*
X1188322D01*
X1171661Y503323D01*
Y470000D01*
X1188322Y453339D01*
X1238306D01*
X1204984D02*
X1171661Y420016D01*
X1138339Y503323D02*
X1121677Y519984D01*
X1088355D01*
X1071694Y503323D01*
Y486661D01*
X1088355Y470000D01*
X1071694Y453339D01*
Y436678D01*
X1088355Y420016D01*
X1121677D01*
X1138339Y436678D01*
Y453339D01*
X1121677Y470000D01*
X1138339Y486661D01*
Y503323D01*
X1121677Y470000D02*
X1088355D01*
X1240807Y297516D02*
Y397484D01*
X1190823D01*
X1174161Y380822D01*
Y347500D01*
X1190823Y330839D01*
X1240807D01*
X1207484D02*
X1174161Y297516D01*
X1074194Y397484D02*
X1107516Y380822D01*
X1140839Y347500D01*
Y314177D01*
X1124177Y297516D01*
X1090855D01*
X1074194Y314177D01*
Y330839D01*
X1090855Y347500D01*
X1140839D01*
X1240807Y537516D02*
Y637484D01*
X1190823D01*
X1174161Y620822D01*
Y587500D01*
X1190823Y570839D01*
X1240807D01*
X1207484D02*
X1174161Y537516D01*
X1090855D02*
Y637484D01*
X1140839Y587500D01*
X1074194D01*
X1240807Y655016D02*
Y754984D01*
X1190823D01*
X1174161Y738323D01*
Y705000D01*
X1190823Y688339D01*
X1240807D01*
X1207484D02*
X1174161Y655016D01*
X1074194D02*
X1140839D01*
X1074194Y721661D01*
Y738323D01*
X1090855Y754984D01*
X1124177D01*
X1140839Y738323D01*
D41*
X5680000Y1482500D02*
G03*
X5680000Y1482500I-12500J0D01*
G01*
X1036500Y1387500D02*
G03*
X1036500Y1387500I-12500J0D01*
G01*
D43*
X1334000Y1103000D02*
G03*
X1197000Y1240000I-137000J0D01*
G01*
X1070000Y1367000D02*
G03*
X1197000Y1240000I127000J0D01*
G01*
X1070000Y1843000D02*
G03*
X943000Y1970000I-127000J0D01*
G01*
X1334000Y50000D02*
Y1103000D01*
X50000Y1970000D02*
X943000D01*
X1070000Y1367000D02*
Y1843000D01*
D44*
X5362500Y1432500D02*
Y1447500D01*
Y1217500D02*
Y1232500D01*
X5072500Y1447500D02*
X5362500D01*
X5072500Y1217500D02*
X5362500D01*
X5130000D02*
Y1447500D01*
X5072500Y1217500D02*
Y1232500D01*
Y1432500D02*
Y1447500D01*
X5362500Y1152500D02*
Y1167500D01*
Y937500D02*
Y952500D01*
X5072500Y1167500D02*
X5362500D01*
X5072500Y937500D02*
X5362500D01*
X5130000D02*
Y1167500D01*
X5072500Y937500D02*
Y952500D01*
Y1152500D02*
Y1167500D01*
%TF.MD5,736ab72efb895259199ddf591242ac6c*%
M02*
