%TF.GenerationSoftware,Altium Limited,Altium Designer,24.1.2 (44)*%
G04 Layer_Color=32768*
%FSLAX45Y45*%
%MOMM*%
%TF.SameCoordinates,791679A7-7A64-4111-B289-18E462613817*%
%TF.FilePolarity,Positive*%
%TF.FileFunction,Other,Top_Covering*%
%TF.Part,Single*%
G01*
G75*
%TA.AperFunction,SMDPad,CuDef*%
%ADD72C,0.60000*%
D72*
X934000Y1762500D02*
D03*
X844000Y1525000D02*
D03*
X2671500Y2770000D02*
D03*
X2363500D02*
D03*
X3633500Y2770000D02*
D03*
X3941500D02*
D03*
X1034000Y444000D02*
D03*
Y571000D02*
D03*
Y698000D02*
D03*
Y825000D02*
D03*
Y1079000D02*
D03*
X1634000Y825000D02*
D03*
Y698000D02*
D03*
Y571000D02*
D03*
Y444000D02*
D03*
Y1079000D02*
D03*
X2014000Y444000D02*
D03*
X2141000Y825000D02*
D03*
X2014000D02*
D03*
X2141000Y444000D02*
D03*
X2992500Y942500D02*
D03*
X1724000Y2557500D02*
D03*
X1914000Y1500000D02*
D03*
X2815000Y1525000D02*
D03*
X3597000Y1725000D02*
D03*
X3724000Y1497500D02*
D03*
X3406500Y2052500D02*
D03*
X2671500Y1725000D02*
D03*
X3295125Y608000D02*
D03*
X3886000Y603000D02*
D03*
Y793000D02*
D03*
X4567500Y1290000D02*
D03*
Y1095000D02*
D03*
X4037500Y1192500D02*
D03*
X4933700Y1407500D02*
D03*
Y977500D02*
D03*
X5800000Y822500D02*
D03*
Y1562500D02*
D03*
X2577500Y571000D02*
D03*
X4345000Y1442500D02*
D03*
X1634000Y190000D02*
D03*
Y317000D02*
D03*
X2992500Y444000D02*
D03*
Y698000D02*
D03*
X2677500Y1200000D02*
D03*
X2357500Y2300000D02*
D03*
X2815000Y1975000D02*
D03*
X1914000Y2425000D02*
D03*
X2039000Y2300000D02*
D03*
X1914000Y1355000D02*
D03*
X2242500Y1625000D02*
D03*
X2039000Y2165000D02*
D03*
X4657500Y1922500D02*
D03*
Y1732500D02*
D03*
X1270000Y1447500D02*
D03*
X1544000Y1287500D02*
D03*
Y2037501D02*
D03*
X3279500Y3050000D02*
D03*
X2392500Y2025000D02*
D03*
X2665000D02*
D03*
X2392500Y1475000D02*
D03*
Y1825000D02*
D03*
Y1625000D02*
D03*
X2668627Y1825000D02*
D03*
X2661127Y1475000D02*
D03*
X3190000Y1097500D02*
D03*
X3597000Y2152500D02*
D03*
X3877000Y1097500D02*
D03*
X3824000Y1297500D02*
D03*
X4757500Y1442500D02*
D03*
X3533500Y698000D02*
D03*
X1914000Y1205000D02*
D03*
X654000Y1387500D02*
D03*
X1634000Y952000D02*
D03*
%TF.MD5,0859770ef58d093dc8898bc59b776301*%
M02*
