%TF.GenerationSoftware,Altium Limited,Altium Designer,24.1.2 (44)*%
G04 Layer_Color=128*
%FSLAX45Y45*%
%MOMM*%
%TF.SameCoordinates,791679A7-7A64-4111-B289-18E462613817*%
%TF.FilePolarity,Positive*%
%TF.FileFunction,Paste,Bot*%
%TF.Part,Single*%
G01*
G75*
%TA.AperFunction,SMDPad,CuDef*%
%ADD13R,0.95000X0.80000*%
%ADD17R,2.00000X2.00000*%
%ADD18R,0.80000X0.95000*%
%ADD37R,2.70000X1.00000*%
%ADD38R,1.00000X1.90000*%
%ADD39R,0.60000X1.00000*%
D13*
X2263500Y2770000D02*
D03*
Y2950000D02*
D03*
X2771500Y2770000D02*
D03*
Y2950000D02*
D03*
X3533500Y2770000D02*
D03*
Y2950000D02*
D03*
X4041500Y2770000D02*
D03*
Y2950000D02*
D03*
X3396000Y788000D02*
D03*
Y608000D02*
D03*
D17*
X5800000Y972500D02*
D03*
Y1412500D02*
D03*
D18*
X4657500Y1442500D02*
D03*
X4477500D02*
D03*
X4657500Y942500D02*
D03*
X4477500D02*
D03*
X3761000Y793000D02*
D03*
X3581000D02*
D03*
X3761000Y603000D02*
D03*
X3581000D02*
D03*
X1914000Y2300000D02*
D03*
X1734000D02*
D03*
X1914000Y2165000D02*
D03*
X1734000D02*
D03*
X1914000Y2030000D02*
D03*
X1734000D02*
D03*
X1914000Y1895000D02*
D03*
X1734000D02*
D03*
Y1760000D02*
D03*
X1914000D02*
D03*
X1734000Y1625000D02*
D03*
X1914000D02*
D03*
Y1079000D02*
D03*
X1734000D02*
D03*
X1914000Y952000D02*
D03*
X1734000D02*
D03*
Y825000D02*
D03*
X1914000D02*
D03*
X1734000Y698000D02*
D03*
X1914000D02*
D03*
X1734000Y571000D02*
D03*
X1914000D02*
D03*
X1734000Y444000D02*
D03*
X1914000D02*
D03*
X934000Y1206000D02*
D03*
X754000D02*
D03*
Y1079000D02*
D03*
X934000D02*
D03*
X754000Y952000D02*
D03*
X934000D02*
D03*
X754000Y825000D02*
D03*
X934000D02*
D03*
X754000Y698000D02*
D03*
X934000D02*
D03*
X754000Y571000D02*
D03*
X934000D02*
D03*
X754000Y444000D02*
D03*
X934000D02*
D03*
D37*
X5452500Y2685000D02*
D03*
Y2315000D02*
D03*
Y1815000D02*
D03*
Y2185000D02*
D03*
D38*
X5377500Y1332500D02*
D03*
X5057500D02*
D03*
X5377500Y1052500D02*
D03*
X5057500D02*
D03*
D39*
X939000Y1662500D02*
D03*
X749000D02*
D03*
Y1387500D02*
D03*
X844000D02*
D03*
X939000D02*
D03*
%TF.MD5,701585522956a35ba834a02c104d2e3a*%
M02*
