M48
;Layer_Color=9474304
;FILE_FORMAT=4:4
METRIC,LZ
;TYPE=PLATED
T01F00S00C0.3000
T02F00S00C0.7620
T03F00S00C0.9000
T04F00S00C1.0000
T05F00S00C1.2000
T06F00S00C3.0000
%
T01
X001034Y000444
Y000571
Y000698
Y000825
Y001079
X000654Y0013875
X001544Y0012875
X001634Y001079
X001634Y000952
X001634Y000825
Y000698
Y000571
Y000444
X001634Y000317
Y00019
X002014Y000444
X002141
Y000825
X002014
X001914Y001205
Y001355
X0026775Y0012
X0029925Y0009425
Y000698
Y000444
X00329512Y000608
X0035335Y000698
X003886Y000793
Y000603
X003877Y0010975
X003824Y0012975
X0040375Y0011925
X0045675Y001095
Y00129
X0049337Y0014075
Y0009775
X00319Y0010975
X0025775Y000571
X0058Y0008225
Y0015625
X0047575Y0014425
X0046575Y0017325
Y0019225
X004345Y0014425
X003724Y0014975
X003597Y001725
Y0021525
X0034065Y0020525
X002815Y001975
X002665Y002025
X00266863Y001825
X0026715Y001725
X00266113Y001475
X002815Y001525
X0023925Y001475
Y001625
X0022425
X0023925Y001825
Y002025
X0023575Y0023
X002039Y0023
Y002165
X001914Y002425
X001724Y0025575
X001544Y0020375
X001914Y0015
X0023635Y00277
X0026715
X0032795Y00305
X0036335Y00277
X0039415
X00127Y0014475
X000844Y001525
X000934Y0017625
T02
X0042915Y00015
X0045455
X0047995
X0050535
X0053075
X0055615
T03
X00019Y00019
Y000444
Y000698
Y000952
Y001206
X000444
Y000952
Y000698
Y000444
Y00019
X0020095Y00315
X0022635
X0025175
X0027715
X0030255
X0035335
X0037875
X0040415
X000444Y001714
Y00146
X00019
Y001714
T04
X0050575Y00165
Y00315
T05
X0059Y002
X0059Y0025
X00145Y002825
X00095Y002825
T06
X00615Y00035
Y00315
X00035
M30
